<svg width="166" height="166" viewBox="0 0 166 166" fill="none" xmlns="http://www.w3.org/2000/svg">
<g clip-path="url(#clip0_498_1120)">
<path fill-rule="evenodd" clip-rule="evenodd" d="M13.8308 149.771C18.1891 131.094 24.484 122.851 32.1111 120.057C39.7382 117.257 48.3338 119.909 56.9294 122.567C62.8616 124.436 68.9148 126.344 74.4838 126.687C80.2949 127.049 85.7431 125.718 90.4646 121.03C91.5542 119.904 92.5229 118.079 93.1283 115.645C94.0968 112.343 94.7021 107.848 94.9442 102.575C96.1549 82.5715 93.7341 51.0866 96.6396 31.9119C97.2449 27.504 98.2128 23.7661 99.5445 21.0161C100.755 18.623 102.208 17.006 104.145 16.5945C105.719 16.2587 107.535 16.7291 109.835 18.0058C113.709 20.1856 118.309 24.6314 124.12 31.8423C129.205 38.1547 133.443 45.2658 138.407 51.7235C146.155 61.8327 154.266 72.0781 163.346 80.189C163.951 80.7018 164.798 80.6504 165.282 80.0756C165.888 79.4993 165.767 78.6159 165.162 78.1031C156.203 70.107 148.213 59.9948 140.586 50.0277C135.743 43.5535 131.385 36.4242 126.301 30.0952C120.247 22.5061 115.284 17.8727 111.167 15.578C108.262 13.8732 105.719 13.4103 103.539 13.8596C101.36 14.3225 99.4236 15.758 97.9709 18.0603C96.0338 21.1068 94.7016 25.7719 93.8542 31.4989C90.9486 50.7417 93.3706 82.3401 92.16 102.415C91.9179 107.446 91.3121 111.738 90.4646 114.888C89.9803 116.757 89.3748 118.197 88.4063 119.06C84.4111 123.111 79.6903 124.21 74.6056 123.898C69.2787 123.567 63.4676 121.698 57.6565 119.898C48.5766 117.05 39.2542 114.435 31.1428 117.434C23.0315 120.438 15.7676 129.059 11.1671 149.139C10.925 149.89 11.409 150.642 12.1354 150.816C12.8618 150.99 13.7097 150.523 13.8308 149.771Z" fill="#4E1A0E"/>
<path fill-rule="evenodd" clip-rule="evenodd" d="M9.80678 148.683C9.68572 148.488 9.44311 147.957 9.32205 147.518C8.59566 145.385 7.86998 142.075 7.62785 141.104C4.96442 132.514 2.78525 122.898 2.78525 113.696C2.78525 112.924 2.17922 112.3 1.45283 112.301C0.605378 112.303 -0.000183105 112.929 -0.000183105 113.7C-0.000183105 123.168 2.30005 133.064 4.84241 141.904C5.20561 142.889 5.932 146.249 6.65838 148.415C6.90051 149.194 7.14335 149.838 7.38548 150.244C7.62761 150.577 7.86927 150.805 8.1114 150.949C8.59566 151.321 9.32276 151.502 10.0491 151.478C10.8966 151.451 11.8649 151.171 12.8334 150.696C14.8915 149.767 17.3126 148.069 19.2496 146.725C20.3392 145.954 21.3079 145.296 21.9133 145.095C27.1191 143.369 32.8086 145.208 37.167 151.18C37.6512 151.8 38.4994 151.935 39.1047 151.478C39.71 151.021 39.8309 150.145 39.4677 149.524C34.1408 142.361 27.3609 140.369 21.0656 142.441C19.4917 142.941 16.1024 145.697 13.0758 147.457C12.1072 147.961 11.2591 148.376 10.5327 148.578C10.2906 148.637 10.1695 148.678 9.92737 148.684C9.92737 148.687 9.80678 148.692 9.80678 148.683Z" fill="#4E1A0E"/>
</g>
<defs>
<clipPath id="clip0_498_1120">
<rect width="166" height="166" fill="white"/>
</clipPath>
</defs>
</svg>
