<svg width="135" height="135" viewBox="0 0 135 135" fill="none" xmlns="http://www.w3.org/2000/svg">
<path d="M22.5001 88.3456H112.5V106.875H22.5001V88.3456ZM22.5001 88.3456H112.5V58.5378C112.5 58.5196 112.485 58.5049 112.467 58.5049H22.5331C22.5148 58.5049 22.5001 58.5196 22.5001 58.5378V88.3456ZM87.0055 28.125C92.4557 28.125 96.8739 32.5322 96.8739 37.9688L96.8401 37.1981L97.0431 37.1437C105.692 40.0668 112.003 47.9645 112.472 57.3782L112.495 58.44L112.5 58.4719C112.5 58.4901 112.485 58.5049 112.467 58.5049H22.723C22.7048 58.5049 22.69 58.4901 22.69 58.4719C22.69 58.4573 22.6996 58.4445 22.7135 58.4403L65.1316 45.6061L78.0414 42.0909C77.4609 40.837 77.1371 39.4406 77.1371 37.9688C77.1371 32.5322 81.5553 28.125 87.0055 28.125ZM87.0055 47.8125C92.4557 47.8125 96.8739 43.4053 96.8739 37.9688C96.8739 32.5322 92.4557 28.125 87.0055 28.125C81.5553 28.125 77.1371 32.5322 77.1371 37.9688C77.1371 43.4053 81.5553 47.8125 87.0055 47.8125Z" fill="#C0723F" stroke="#4E1A0E" stroke-width="2" stroke-linejoin="round"/>
</svg>
