<svg width="16" height="16" viewBox="0 0 16 16" fill="none" xmlns="http://www.w3.org/2000/svg">
<path d="M8.09343 1.33334C6.77489 1.33334 5.48595 1.72433 4.38963 2.45687C3.2933 3.18941 2.43881 4.23061 1.93423 5.44878C1.42965 6.66695 1.29762 8.0074 1.55486 9.3006C1.81209 10.5938 2.44703 11.7817 3.37938 12.714C4.31173 13.6464 5.49962 14.2813 6.79283 14.5386C8.08603 14.7958 9.42648 14.6638 10.6447 14.1592C11.8628 13.6546 12.904 12.8001 13.6366 11.7038C14.3691 10.6075 14.7601 9.31854 14.7601 8C14.7601 6.23189 14.0577 4.5362 12.8075 3.28596C11.5572 2.03571 9.86154 1.33334 8.09343 1.33334ZM8.09343 13.3333C7.03859 13.3333 6.00745 13.0205 5.13039 12.4345C4.25332 11.8485 3.56974 11.0155 3.16607 10.041C2.7624 9.06644 2.65679 7.99409 2.86257 6.95952C3.06836 5.92496 3.57631 4.97465 4.32219 4.22877C5.06807 3.48289 6.01838 2.97494 7.05295 2.76915C8.08751 2.56336 9.15987 2.66898 10.1344 3.07265C11.1089 3.47631 11.9419 4.1599 12.5279 5.03696C13.114 5.91402 13.4268 6.94517 13.4268 8C13.4268 9.41449 12.8649 10.771 11.8647 11.7712C10.8645 12.7714 9.50792 13.3333 8.09343 13.3333Z" fill="white"/>
<path d="M10.7601 6.66666C10.7601 6.13623 10.5494 5.62752 10.1743 5.25245C9.79923 4.87738 9.29052 4.66666 8.76009 4.66666H5.42676V11.3333H6.76009V8.66666H7.73342L9.51342 11.3333H11.1134L9.28009 8.58666C9.70297 8.47281 10.0768 8.2233 10.3441 7.87645C10.6115 7.52961 10.7576 7.10459 10.7601 6.66666ZM8.76009 7.33333H6.76009V6H8.76009C8.9369 6 9.10647 6.07024 9.2315 6.19526C9.35652 6.32028 9.42676 6.48985 9.42676 6.66666C9.42676 6.84348 9.35652 7.01304 9.2315 7.13807C9.10647 7.26309 8.9369 7.33333 8.76009 7.33333Z" fill="white"/>
</svg>
