<svg width="55" height="49" viewBox="0 0 55 49" fill="none" xmlns="http://www.w3.org/2000/svg">
<path d="M9.93835 39.5592C12.4203 41.9359 16.3591 41.8506 18.7358 39.3686C21.1126 36.8866 21.0272 32.9478 18.5453 30.5711C16.0633 28.1944 12.1245 28.2797 9.74777 30.7617C7.37104 33.2437 7.45636 37.1824 9.93835 39.5592ZM44.366 3.60691C46.848 5.98364 46.9333 9.92241 44.5566 12.4044L26.1924 31.5868C27.3891 35.7125 26.4147 40.3462 23.2299 43.672C18.4764 48.636 10.5989 48.8067 5.63489 44.0532C0.670923 39.2997 0.500275 31.4222 5.25374 26.4582C8.43941 23.1315 13.0282 21.9576 17.2028 22.976L35.5685 3.79749C37.9452 1.3155 41.884 1.23018 44.366 3.60691ZM33.9885 32.437L40.7296 38.8922L33.9885 32.437Z" fill="#9E1030"/>
<path d="M18.5453 30.5711C21.0272 32.9478 21.1126 36.8866 18.7358 39.3686C16.3591 41.8506 12.4203 41.9359 9.93835 39.5592C7.45636 37.1824 7.37104 33.2437 9.74777 30.7617C12.1245 28.2797 16.0633 28.1944 18.5453 30.5711ZM18.5453 30.5711L33.6074 14.842M46.8989 18.9549L53.6399 25.4101M42.5954 23.4489L49.3365 29.9041M38.292 27.9429L45.033 34.3981M33.9885 32.437L40.7296 38.8922M44.366 3.60691C46.848 5.98365 46.9333 9.92241 44.5566 12.4044L26.1924 31.5868C27.3891 35.7125 26.4147 40.3462 23.2299 43.672C18.4764 48.636 10.5989 48.8067 5.63489 44.0532C0.670922 39.2997 0.500274 31.4222 5.25374 26.4582C8.43941 23.1315 13.0282 21.9576 17.2028 22.976L35.5685 3.79749C37.9452 1.3155 41.884 1.23018 44.366 3.60691Z" stroke="#4E1A0E" stroke-width="2" stroke-linejoin="round"/>
</svg>
