<svg width="166" height="139" viewBox="0 0 166 139" fill="none" xmlns="http://www.w3.org/2000/svg">
<path fill-rule="evenodd" clip-rule="evenodd" d="M13.8308 136.771C18.1891 118.094 24.484 109.851 32.1111 107.057C39.7382 104.257 48.3338 106.909 56.9294 109.567C62.8616 111.436 68.9148 113.344 74.4838 113.687C80.2949 114.049 85.7431 112.718 90.4646 108.03C91.5542 106.904 92.5229 105.079 93.1283 102.645C94.0968 99.3426 94.7021 94.8484 94.9442 89.5752C96.1549 69.5715 93.7341 38.0866 96.6396 18.9119C97.2449 14.504 98.2128 10.7661 99.5445 8.01609C100.755 5.62303 102.208 4.00597 104.145 3.59452C105.719 3.25871 107.535 3.72912 109.835 5.00583C113.709 7.1856 118.309 11.6314 124.12 18.8423C129.205 25.1547 133.443 32.2658 138.407 38.7235C146.155 48.8327 154.266 59.0781 163.346 67.189C163.951 67.7018 164.798 67.6504 165.282 67.0756C165.888 66.4993 165.767 65.6159 165.162 65.1031C156.203 57.107 148.213 46.9948 140.586 37.0277C135.743 30.5535 131.385 23.4242 126.301 17.0952C120.247 9.50605 115.284 4.87274 111.167 2.578C108.262 0.873215 105.719 0.41031 103.539 0.859576C101.36 1.32246 99.4236 2.758 97.9709 5.0603C96.0338 8.10683 94.7016 12.7719 93.8542 18.4989C90.9486 37.7417 93.3706 69.3401 92.16 89.4149C91.9179 94.446 91.3121 98.7375 90.4646 101.888C89.9803 103.757 89.3748 105.197 88.4063 106.06C84.4111 110.111 79.6903 111.21 74.6056 110.898C69.2787 110.567 63.4676 108.698 57.6565 106.898C48.5766 104.05 39.2542 101.435 31.1428 104.434C23.0315 107.438 15.7676 116.059 11.1671 136.139C10.925 136.89 11.409 137.642 12.1354 137.816C12.8618 137.99 13.7097 137.523 13.8308 136.771Z" fill="#4E1A0E"/>
<path fill-rule="evenodd" clip-rule="evenodd" d="M9.80678 135.683C9.68572 135.488 9.44311 134.957 9.32205 134.518C8.59566 132.385 7.86998 129.075 7.62785 128.104C4.96442 119.514 2.78525 109.898 2.78525 100.696C2.78525 99.9245 2.17922 99.2998 1.45283 99.3013C0.605378 99.3028 -0.000183105 99.929 -0.000183105 100.7C-0.000183105 110.168 2.30005 120.064 4.84241 128.904C5.20561 129.889 5.932 133.249 6.65838 135.415C6.90051 136.194 7.14335 136.838 7.38548 137.244C7.62761 137.577 7.86927 137.805 8.1114 137.949C8.59566 138.321 9.32276 138.502 10.0491 138.478C10.8966 138.451 11.8649 138.171 12.8334 137.696C14.8915 136.767 17.3126 135.069 19.2496 133.725C20.3392 132.954 21.3079 132.296 21.9133 132.095C27.1191 130.369 32.8086 132.208 37.167 138.18C37.6512 138.8 38.4994 138.935 39.1047 138.478C39.71 138.021 39.8309 137.145 39.4677 136.524C34.1408 129.361 27.3609 127.369 21.0656 129.441C19.4917 129.941 16.1024 132.697 13.0758 134.457C12.1072 134.961 11.2591 135.376 10.5327 135.578C10.2906 135.637 10.1695 135.678 9.92737 135.684C9.92737 135.687 9.80678 135.692 9.80678 135.683Z" fill="#4E1A0E"/>
</svg>
