<svg width="24" height="24" viewBox="0 0 24 24" fill="none" xmlns="http://www.w3.org/2000/svg">
<path d="M12 22C6.486 22 2 17.514 2 12C2 6.486 6.486 2 12 2C17.514 2 22 6.486 22 12C22 17.514 17.514 22 12 22ZM12 3.4286C7.2737 3.4286 3.4286 7.2737 3.4286 12C3.4286 16.7263 7.2737 20.5714 12 20.5714C16.7263 20.5714 20.5714 16.7263 20.5714 12C20.5714 7.2737 16.7263 3.4286 12 3.4286Z" fill="#4E1A0E"/>
<path d="M9.96218 17.4989C9.96218 18.1705 9.97568 19.9705 9.97568 20.1586C9.96658 20.2949 9.89528 20.4492 9.72508 20.5143C10.4386 20.7223 11.1927 20.836 11.9738 20.836C12.7533 20.836 13.5059 20.7228 14.2182 20.5156C14.0625 20.4493 13.999 20.2985 13.999 20.1586C13.999 19.8899 14.0125 17.8616 14.0125 16.787C14.0125 16.0348 13.756 15.5512 13.459 15.296C15.2681 15.0811 17.1582 14.396 17.1582 11.3065C17.1582 10.4199 16.8342 9.70801 16.3211 9.14381C16.4156 8.94231 16.6991 8.12291 16.2536 7.00801C16.2536 7.00801 15.5786 6.79311 14.026 7.84081C13.378 7.65271 12.6894 7.55871 12.0009 7.55871C11.3124 7.57211 10.6238 7.66621 9.97578 7.84081C8.42318 6.79301 7.74818 7.00801 7.74818 7.00801C7.30268 8.10951 7.58618 8.94231 7.66718 9.14381C7.14068 9.70801 6.83008 10.4333 6.83008 11.3065C6.83008 14.396 8.72018 15.0945 10.5158 15.296C10.2863 15.4975 10.0703 15.8467 10.0028 16.3706L9.96218 17.4989Z" fill="#4E1A0E"/>
<path d="M10.0574 17.4132C9.45011 17.4943 8.78261 17.451 8.59931 16.9319C8.59591 16.9223 8.59231 16.9127 8.58841 16.9033C8.58431 16.8934 8.16501 15.9069 7.57741 15.613C7.28261 15.4657 6.92431 15.585 6.77701 15.8798C6.63091 16.1718 6.74701 16.5265 7.03601 16.6762C7.14901 16.7553 7.38801 17.1289 7.48041 17.3462C7.67121 17.8719 8.19201 18.6389 9.60421 18.6389C9.74131 18.6389 9.88711 18.6314 10.0415 18.6161" fill="#4E1A0E"/>
</svg>
