<svg width="22" height="22" viewBox="0 0 22 22" fill="none" xmlns="http://www.w3.org/2000/svg">
<path d="M11 21C16.523 21 21 16.523 21 11C21 5.477 16.523 1 11 1C5.477 1 1 5.477 1 11C1 16.523 5.477 21 11 21Z" stroke="#4E1A0E" stroke-width="1.5" stroke-linecap="round" stroke-linejoin="round"/>
<path d="M12.4999 8.1705C12.0475 8.0111 11.5634 7.9625 11.0884 8.02878C10.6133 8.09506 10.1611 8.27429 9.76956 8.55144C9.37806 8.82859 9.05873 9.19557 8.83834 9.62161C8.61795 10.0477 8.50293 10.5203 8.50293 11C8.50293 11.4797 8.61795 11.9523 8.83834 12.3784C9.05873 12.8044 9.37806 13.1714 9.76956 13.4486C10.1611 13.7257 10.6133 13.9049 11.0884 13.9712C11.5634 14.0375 12.0475 13.9889 12.4999 13.8295" stroke="#222222" stroke-width="1.5" stroke-linecap="round" stroke-linejoin="round"/>
</svg>
