<svg width="215" height="160" viewBox="0 0 215 160" fill="none" xmlns="http://www.w3.org/2000/svg">
<path d="M80 51.684C80 75.0545 61.1015 94 37.7889 94C14.4764 94 0 75.0545 0 51.684C0 28.3135 4.50286 9 27.8154 9C51.1279 9 80 28.3135 80 51.684Z" fill="#FCEEB4"/>
<path fill-rule="evenodd" clip-rule="evenodd" d="M6.98249 94.2641C5.20754 95.0589 3.44149 95.8358 1.68745 96.6815C0.202349 97.3986 -0.419154 99.1885 0.297999 100.674C1.01515 102.159 2.80209 102.78 4.28719 102.063C5.99043 101.241 7.7056 100.488 9.42976 99.7144C10.9358 99.0391 11.608 97.2701 10.9327 95.7641C10.2574 94.2611 8.48851 93.5887 6.98249 94.2641Z" fill="#FCEEB4"/>
<path fill-rule="evenodd" clip-rule="evenodd" d="M18.7737 104.699C16.2159 110.239 13.9388 115.904 11.5005 121.495C10.8401 123.007 11.5335 124.77 13.0455 125.43C14.5575 126.088 16.3174 125.397 16.9778 123.885C19.4011 118.333 21.6572 112.707 24.2001 107.206C24.8903 105.709 24.236 103.931 22.739 103.24C21.2419 102.547 19.464 103.202 18.7737 104.699Z" fill="#FCEEB4"/>
<path fill-rule="evenodd" clip-rule="evenodd" d="M40.4882 107.43C41.304 112.501 42.2631 117.56 43.0191 122.639C43.2641 124.268 44.7851 125.394 46.4166 125.152C48.0482 124.907 49.1747 123.386 48.9326 121.755C48.1677 116.654 47.2085 111.574 46.3898 106.48C46.1268 104.851 44.5939 103.742 42.9654 104.005C41.3369 104.265 40.2253 105.801 40.4882 107.43Z" fill="#FCEEB4"/>
<path fill-rule="evenodd" clip-rule="evenodd" d="M200.507 140.73C200.442 140.348 200.394 139.971 200.363 139.594C200.315 139.028 200.345 138.458 200.328 137.892C200.321 137.652 200.292 137.027 200.303 136.937C200.408 136.152 201.041 136.032 201.227 136.011C201.316 135.998 202.236 135.895 202.434 136.915C202.678 138.162 202.756 139.418 202.67 140.648C202.871 141.694 203.214 142.735 203.668 143.678C205.474 147.428 208.916 147.792 212.644 147.758C213.218 147.75 213.694 148.2 213.724 148.77C213.754 149.344 213.327 149.841 212.756 149.892C210.672 150.094 206.974 151.765 205.696 153.505C205.428 153.87 205.273 154.748 205.067 155.61C204.78 156.805 204.438 157.988 204.056 158.485C203.998 158.562 203.3 159.351 203.092 159.467C202.591 159.741 202.19 159.582 201.963 159.437C201.735 159.291 201.478 159.004 201.375 158.528C201.267 158.031 201.358 157.011 201.341 156.792C201.281 156 201.122 154.444 200.798 153.107C200.624 152.387 200.438 151.722 200.13 151.392C198.991 150.171 197.17 150.351 195.636 150.552C195.46 150.574 195.284 150.6 195.108 150.621C194.483 150.805 193.82 150.942 193.12 151.024C192.062 151.148 191.888 150.175 191.878 150.111C191.858 149.97 191.785 149.241 192.583 148.95C192.67 148.92 193.312 148.778 193.559 148.722C193.904 148.645 194.252 148.585 194.602 148.53C198.214 147.407 200.176 144.252 200.507 140.73ZM201.746 144.625C203.11 147.445 205.18 148.808 207.633 149.425H207.632C206.101 150.227 204.707 151.23 203.969 152.237C203.689 152.618 203.432 153.385 203.2 154.247C203.074 153.445 202.904 152.592 202.68 151.864C202.425 151.032 202.082 150.342 201.699 149.931C200.959 149.138 200.031 148.697 199.033 148.478C200.228 147.42 201.134 146.1 201.746 144.625Z" fill="#4E1A0E"/>
<path d="M34.6665 65.4411H101.333V79.1666H34.6665V65.4411ZM34.6665 65.4411H101.333V43.3613C101.333 43.3478 101.322 43.3368 101.309 43.3368H34.6909C34.6774 43.3368 34.6665 43.3478 34.6665 43.3613V65.4411ZM82.4483 20.8333C86.4855 20.8333 89.7583 24.0978 89.7583 28.1249L89.7332 27.5541L89.8835 27.5138C96.2905 29.679 100.965 35.5291 101.312 42.5023L101.33 43.2888L101.333 43.3124C101.333 43.3259 101.322 43.3368 101.309 43.3368H34.8317C34.8182 43.3368 34.8072 43.3259 34.8072 43.3124C34.8072 43.3016 34.8143 43.2921 34.8246 43.289L66.2455 33.7822L75.8082 31.1784C75.3783 30.2495 75.1384 29.2152 75.1384 28.1249C75.1384 24.0978 78.4111 20.8333 82.4483 20.8333ZM82.4483 35.4166C86.4855 35.4166 89.7583 32.152 89.7583 28.1249C89.7583 24.0978 86.4855 20.8333 82.4483 20.8333C78.4111 20.8333 75.1384 24.0978 75.1384 28.1249C75.1384 32.152 78.4111 35.4166 82.4483 35.4166Z" fill="#C0723F" stroke="#4E1A0E" stroke-width="2" stroke-linejoin="round"/>
</svg>
