<svg width="31" height="29" viewBox="0 0 31 29" fill="none" xmlns="http://www.w3.org/2000/svg">
<path fill-rule="evenodd" clip-rule="evenodd" d="M13.2289 4.88139C13.1917 4.09462 13.1991 3.32869 13.2363 2.60965C13.3629 0.447332 15.3726 0.454782 15.5289 0.457759C15.8564 0.465203 17.3154 0.557491 17.6653 2.24343C17.6876 2.34392 17.7397 3.07188 17.7546 3.3525C17.7844 3.95095 17.7992 4.539 17.7173 5.12926C17.7918 6.1304 17.9555 7.16058 18.2681 8.12972C18.7222 9.56034 19.4591 10.8808 20.7915 11.5842C23.1734 12.8496 26.307 12.7982 28.9271 13.1198C30.0213 13.2538 30.855 14.1663 30.8922 15.2679C30.922 16.3703 30.1479 17.332 29.0612 17.5322C25.786 18.1381 22.0196 21.1163 19.6228 23.5146C18.8859 24.2515 18.0597 26.0066 17.1367 27.1306C16.3924 28.0312 15.5661 28.6349 14.7845 28.8746C14.4794 28.9676 12.7897 29.307 12.0305 27.5578C11.8221 27.0666 11.0852 24.4941 11.0182 24.2008C10.6163 22.5201 10.0431 21.0187 8.91918 19.6819C7.94408 18.523 6.76053 17.5107 5.33883 16.9494C4.76568 16.7232 4.1702 16.5512 3.57473 16.3741C3.36631 16.3488 2.77829 16.2743 2.56988 16.2036C2.1456 16.0622 1.83294 15.8404 1.60964 15.6193C1.18536 15.201 0.969476 14.7015 0.932259 14.1328C0.902485 13.7577 0.9546 13.3126 1.22256 12.8191C1.42354 12.4685 1.87758 11.9407 2.69636 11.5983C3.55236 11.2403 5.39094 10.9001 5.71845 10.8116C7.99615 10.1982 10.2292 9.26559 11.9784 7.64887C12.8493 6.84052 13.0502 5.96888 13.2289 4.88139ZM14.6879 11.2113C15.5662 13.032 16.8762 14.5646 18.6998 15.53C19.4516 15.9312 20.2704 16.2356 21.1189 16.4723C19.3697 17.6901 17.747 19.0745 16.4593 20.3578C16.0425 20.7754 15.5885 21.4512 15.1047 22.1933C14.539 20.2119 13.7053 18.4322 12.3357 16.8036C11.5244 15.8434 10.6088 14.9658 9.58902 14.2341C11.435 13.5031 13.1843 12.5251 14.6879 11.2113Z" fill="#4E1A0E"/>
</svg>
