<svg width="200" height="405" viewBox="0 0 200 405" fill="none" xmlns="http://www.w3.org/2000/svg">
<path d="M151.392 334.077C151.392 373.029 109.483 404.607 70.53 404.607C31.5774 404.607 0 373.029 0 334.077C0 295.124 13.9538 260.039 52.9065 260.039C91.8591 260.039 151.392 295.124 151.392 334.077Z" fill="#FCEEB4"/>
<path fill-rule="evenodd" clip-rule="evenodd" d="M182.229 228.881C182.192 228.095 182.199 227.329 182.236 226.61C182.363 224.447 184.373 224.455 184.529 224.458C184.856 224.465 186.315 224.557 186.665 226.243C186.688 226.344 186.74 227.072 186.755 227.352C186.784 227.951 186.799 228.539 186.717 229.129C186.792 230.13 186.956 231.161 187.268 232.13C187.722 233.56 188.459 234.881 189.791 235.584C192.173 236.85 195.307 236.798 197.927 237.12C199.021 237.254 199.855 238.166 199.892 239.268C199.922 240.37 199.148 241.332 198.061 241.532C194.786 242.138 191.02 245.116 188.623 247.515C187.886 248.251 187.06 250.007 186.137 251.131C185.392 252.031 184.566 252.635 183.785 252.875C183.479 252.968 181.79 253.307 181.03 251.558C180.822 251.067 180.085 248.494 180.018 248.201C179.616 246.52 179.043 245.019 177.919 243.682C176.944 242.523 175.761 241.511 174.339 240.949C173.766 240.723 173.17 240.551 172.575 240.374C172.366 240.349 171.778 240.274 171.57 240.204C171.146 240.062 170.833 239.84 170.61 239.619C170.185 239.201 169.969 238.702 169.932 238.133C169.902 237.758 169.955 237.313 170.223 236.819C170.424 236.468 170.878 235.941 171.696 235.598C172.552 235.24 174.391 234.9 174.718 234.812C176.996 234.198 179.229 233.266 180.978 231.649C181.849 230.841 182.05 229.969 182.229 228.881ZM183.688 235.211C184.566 237.032 185.876 238.565 187.7 239.53C188.452 239.931 189.27 240.236 190.119 240.472C188.37 241.69 186.747 243.075 185.459 244.358C185.042 244.775 184.588 245.451 184.105 246.193C183.539 244.212 182.705 242.432 181.336 240.804C180.524 239.843 179.609 238.966 178.589 238.234C180.435 237.503 182.184 236.525 183.688 235.211Z" fill="#4E1A0E"/>
<path fill-rule="evenodd" clip-rule="evenodd" d="M81.8839 100.246C86.0885 101.157 90.24 102.096 94.469 102.884C95.3782 103.057 96.2477 102.463 96.4167 101.559C96.5896 100.65 95.99 99.776 95.0861 99.607C90.8812 98.8198 86.7646 97.8904 82.5893 96.9842C81.6866 96.7912 80.7993 97.3643 80.6049 98.2577C80.4119 99.1604 80.9812 100.053 81.8839 100.246Z" fill="#4E1A0E"/>
<path fill-rule="evenodd" clip-rule="evenodd" d="M71.0499 66.3545C82.9629 59.8051 94.5375 52.6577 106.303 45.8585C107.102 45.3942 107.372 44.3747 106.913 43.58C106.449 42.7814 105.434 42.5053 104.63 42.9657C92.8869 49.7567 81.3351 56.896 69.4432 63.4278C68.6325 63.8749 68.3414 64.8878 68.7831 65.6946C69.2302 66.5054 70.2431 66.7962 71.0499 66.3545Z" fill="#4E1A0E"/>
<path fill-rule="evenodd" clip-rule="evenodd" d="M33.5909 34.7476C38.8594 24.5336 43.8503 14.1564 49.2327 4.00166C49.6587 3.18788 49.3489 2.17991 48.5391 1.74854C47.7239 1.31321 46.7119 1.62838 46.2806 2.43821C40.8956 12.6077 35.8968 22.9957 30.6257 33.2243C30.2051 34.0421 30.5242 35.0487 31.3419 35.4694C32.165 35.894 33.1663 35.5707 33.5909 34.7476Z" fill="#4E1A0E"/>
<path d="M70.0793 335.088L69.0473 341.953L75.9117 340.921L82.451 339.849L88.6649 338.739L94.5537 337.589L100.117 336.4L105.356 335.171C123.121 330.803 134.91 325.712 140.723 319.899C154.426 306.196 154.426 283.98 140.723 270.277C127.02 256.574 104.804 256.574 91.1014 270.277C85.2881 276.09 80.1972 287.879 75.8287 305.644L74.6002 310.883L73.411 316.446L72.2611 322.335L71.1505 328.549L70.0793 335.088ZM69.0473 341.953C96.6149 332.763 116.831 321.736 129.696 308.872C148.993 289.574 148.993 278.547 140.723 270.277C132.453 262.007 121.426 262.007 102.128 281.304C89.2635 294.169 78.2365 314.385 69.0473 341.953ZM49.75 344.709L60.777 350.223L66.2905 361.25L35.9662 391.574C31.3987 396.142 23.9932 396.142 19.4257 391.574C14.8581 387.007 14.8581 379.601 19.4257 375.034L49.75 344.709Z" fill="white"/>
<path d="M69.0473 341.953L70.0793 335.088L71.1505 328.549L72.2611 322.335L73.411 316.446L74.6002 310.883L75.8287 305.644C80.1972 287.879 85.2881 276.09 91.1014 270.277C104.804 256.574 127.02 256.574 140.723 270.277M69.0473 341.953L75.9117 340.921L82.451 339.849L88.6649 338.739L94.5537 337.589L100.117 336.4L105.356 335.171C123.121 330.803 134.91 325.712 140.723 319.899C154.426 306.196 154.426 283.98 140.723 270.277M69.0473 341.953C96.6149 332.763 116.831 321.736 129.696 308.872C148.993 289.574 148.993 278.547 140.723 270.277M69.0473 341.953C78.2365 314.385 89.2635 294.169 102.128 281.304C121.426 262.007 132.453 262.007 140.723 270.277M139.75 271.25L57.25 353.75M49.75 344.709L60.777 350.223L66.2905 361.25L35.9662 391.574C31.3987 396.142 23.9932 396.142 19.4257 391.574C14.8581 387.007 14.8581 379.601 19.4257 375.034L49.75 344.709Z" stroke="#4E1A0E" stroke-width="2" stroke-linejoin="round"/>
</svg>
