<svg width="125" height="71" viewBox="0 0 125 71" fill="none" xmlns="http://www.w3.org/2000/svg">
<path fill-rule="evenodd" clip-rule="evenodd" d="M114.051 27.9658C114.028 27.4781 114.032 27.0033 114.055 26.5576C114.134 25.2173 115.38 25.2219 115.476 25.2238C115.679 25.2284 116.584 25.2856 116.801 26.3306C116.815 26.3929 116.847 26.8442 116.856 27.0181C116.875 27.389 116.884 27.7536 116.833 28.1194C116.879 28.74 116.981 29.3785 117.174 29.9793C117.456 30.866 117.913 31.6845 118.738 32.1205C120.215 32.9049 122.157 32.8731 123.781 33.0724C124.46 33.1554 124.976 33.7211 124.999 34.4039C125.018 35.0872 124.538 35.6833 123.864 35.8075C121.834 36.183 119.5 38.029 118.014 39.5156C117.557 39.9724 117.045 41.0603 116.473 41.757C116.012 42.3153 115.5 42.6895 115.015 42.838C114.826 42.8957 113.779 43.1061 113.308 42.0219C113.179 41.7173 112.722 40.1228 112.68 39.941C112.431 38.8992 112.076 37.9686 111.379 37.1399C110.775 36.4216 110.041 35.7941 109.16 35.4462C108.805 35.3059 108.436 35.1994 108.067 35.0896C107.937 35.0739 107.573 35.0277 107.444 34.9839C107.181 34.8962 106.987 34.7588 106.849 34.6217C106.586 34.3624 106.452 34.0528 106.429 33.7003C106.41 33.4678 106.443 33.1919 106.609 32.886C106.733 32.6687 107.015 32.3415 107.522 32.1293C108.053 31.9074 109.192 31.6965 109.395 31.6416C110.807 31.2614 112.191 30.6833 113.276 29.6812C113.816 29.1802 113.94 28.6399 114.051 27.9658ZM114.955 31.8894C115.5 33.018 116.312 33.9679 117.442 34.5664C117.908 34.815 118.416 35.0037 118.941 35.1505C117.857 35.9053 116.851 36.7634 116.053 37.5589C115.795 37.8177 115.513 38.2367 115.214 38.6967C114.863 37.4684 114.346 36.3653 113.497 35.3558C112.994 34.7606 112.427 34.2166 111.795 33.7631C112.939 33.31 114.023 32.7037 114.955 31.8894Z" fill="#4E1A0E"/>
<path fill-rule="evenodd" clip-rule="evenodd" d="M85.2097 67.1703C95.7108 67.4241 106.443 66.912 116.482 70.5015C117.202 70.7599 117.996 70.3816 118.254 69.6664C118.513 68.9467 118.134 68.1531 117.414 67.8947C107.093 64.2036 96.0707 64.6604 85.2789 64.402C84.513 64.3836 83.8809 64.988 83.8625 65.7493C83.844 66.5152 84.4484 67.1473 85.2097 67.1703Z" fill="#4E1A0E"/>
<path fill-rule="evenodd" clip-rule="evenodd" d="M84.4298 51.8298C87.6825 48.8377 91.2306 46.594 95.5214 45.483C96.2597 45.2915 96.7026 44.5357 96.5134 43.7961C96.3197 43.0565 95.5676 42.6118 94.8248 42.8032C90.0818 44.031 86.1507 46.4856 82.5565 49.7918C81.9936 50.3091 81.9567 51.1852 82.4735 51.7476C82.9902 52.3101 83.8669 52.347 84.4298 51.8298Z" fill="#4E1A0E"/>
<path fill-rule="evenodd" clip-rule="evenodd" d="M75.3682 18.771C76.8584 13.6704 79.7883 9.67986 84.2776 6.79851C84.9189 6.38604 85.108 5.52877 84.6928 4.88607C84.2821 4.2429 83.4239 4.05604 82.7826 4.46898C77.7074 7.72497 74.3946 12.2313 72.7106 17.9954C72.4983 18.7285 72.9182 19.4976 73.6518 19.7117C74.3854 19.9258 75.1559 19.5041 75.3682 18.771Z" fill="#4E1A0E"/>
<path fill-rule="evenodd" clip-rule="evenodd" d="M23.0379 11.6778C22.1705 12.7085 21.3953 13.8159 20.7309 14.9924C20.3434 15.6711 19.6605 17.2518 19.7759 18.3965C19.8635 19.2542 20.2695 19.9518 21.0816 20.3634C22.3781 21.0222 23.4162 20.9415 24.2144 20.5433C24.9803 20.1622 25.5893 19.4194 25.9676 18.4159C26.6413 16.6243 26.5629 13.916 26.2214 12.2845C27.1442 11.3438 28.1546 10.4884 29.2297 9.72523C37.4977 3.86427 49.6275 6.05399 58.9614 14.8175C62.2326 17.8876 63.7875 24.3419 64.6042 31.2982C65.8914 42.2136 65.1578 54.4047 65.0563 57.9763C65.0333 58.9161 65.1348 59.4735 65.1809 59.5847C65.4393 60.1988 65.9007 60.3603 66.219 60.4202C66.6666 60.5033 67.0218 60.4157 67.3125 60.2634C67.7001 60.0604 68.023 59.7042 68.1707 59.1496C68.2445 58.8663 68.2675 58.4728 68.2583 58.0524C68.2491 57.8038 68.1891 57.5325 68.2399 57.3544C68.5998 56.1026 69.0334 54.8795 69.4533 53.6485C70.8651 49.5076 72.6969 45.6274 74.7223 41.7513C81.1771 29.4277 87.4059 16.4024 97.9854 7.01322C98.5576 6.50616 98.6129 5.63092 98.1054 5.05927C97.5979 4.48807 96.7213 4.43593 96.1491 4.94299C85.3158 14.5555 78.8748 27.8502 72.2724 40.4677C70.736 43.3993 69.3149 46.3351 68.0922 49.377C68.203 42.5093 68.0369 33.2028 66.5097 25.5216C65.4254 20.0441 63.6122 15.3823 60.8577 12.7994C50.4442 3.02272 36.8518 0.928013 27.6287 7.46675C26.7197 8.10992 25.857 8.81216 25.0403 9.56976C20.1404 1.01293 9.88377 -2.38194 0.808304 1.75991C0.116225 2.07734 -0.192895 2.89905 0.125462 3.5939C0.443818 4.28874 1.26507 4.59555 1.95715 4.27812C9.95759 0.627646 19.0192 3.84766 23.0379 11.6778ZM23.7484 15.3541C23.5362 15.6812 23.3332 16.0153 23.1394 16.3562C23.001 16.5952 22.7933 17.0114 22.6503 17.4562C22.6042 17.6107 22.5673 17.8539 22.5488 18.0025C22.7195 18.0837 22.8579 18.1261 22.9825 18.0648C23.1855 17.9628 23.2732 17.7085 23.3747 17.4396C23.6007 16.8402 23.7161 16.0942 23.7484 15.3541Z" fill="#4E1A0E"/>
</svg>
