<svg width="175" height="29" viewBox="0 0 175 29" fill="none" xmlns="http://www.w3.org/2000/svg">
<path d="M174.977 4.84725C175.048 2.67268 173.829 1.48715 172.678 1.1531C172.359 1.05813 172.024 1.00901 171.701 1.00901C169.623 0.995905 166.503 0.999182 159.776 1.00573C158.973 1.00573 158.191 1.14983 157.486 1.70002C156.721 2.29279 156.247 3.17047 156.264 4.31343C156.29 5.9902 155.207 7.22486 154.205 7.62441C153.821 7.77505 153.41 7.85693 153.008 7.8602C152.662 7.8602 151.456 7.86348 151.11 7.87003C150.764 7.87003 149.557 7.87003 149.212 7.8602C148.81 7.8602 148.394 7.77833 148.015 7.62441C147.013 7.22486 145.93 5.9902 145.955 4.31343C145.973 3.1672 145.498 2.29279 144.733 1.70002C144.029 1.14655 143.247 1.00573 142.444 1.00573C140.366 1.00246 138.988 0.995905 136.916 1.00901C136.588 1.00901 136.257 1.06468 135.939 1.1531C134.788 1.48715 133.568 2.67595 133.639 4.84725C133.733 7.83073 133.594 10.824 133.692 13.8108C133.682 15.2157 133.667 24.1694 133.657 25.5711C133.637 26.4357 133.985 29 136.519 29C138.65 29 139.463 27.2512 139.463 25.1814C139.463 23.1116 139.478 13.5062 139.46 11.4463C139.445 10.1428 139.904 9.20948 140.73 8.55121C141.725 7.7685 142.775 7.8209 143.9 8.06652C145.476 8.40711 146.036 10.0872 146.49 13.1165C146.826 15.35 148.621 15.3042 151.122 15.2583C153.624 15.3042 155.419 15.35 155.755 13.1165C156.209 10.0839 156.769 8.40711 158.345 8.06652C159.468 7.8209 166.915 7.7685 167.909 8.55121C168.737 9.20293 169.189 10.1396 169.179 11.4463C169.159 13.5062 169.176 23.1215 169.176 25.1814C169.176 27.2414 169.989 29 172.12 29C174.657 29 175.002 26.4357 174.982 25.5711C174.972 24.1662 174.957 15.2125 174.947 13.8108C175.045 10.8273 174.904 7.834 175 4.84725H174.977Z" fill="black"/>
<path d="M64.1052 12.1956C64.7086 12.1956 65.2294 11.9346 65.6726 11.4096C66.1133 10.8563 66.3337 10.1835 66.3337 9.39749C66.3337 8.6115 66.1108 7.98585 65.6726 7.42937C65.2294 6.87604 64.7061 6.59937 64.1052 6.59937H47.2613C46.6353 6.59937 46.097 6.87918 45.6588 7.42937C45.2407 7.98271 45.0328 8.63665 45.0328 9.39749C45.0328 10.1583 45.2407 10.8594 45.6588 11.4096C46.0995 11.9346 46.6353 12.1956 47.2613 12.1956H64.1052ZM42.7968 29C42.1709 29 41.6375 28.7202 41.1943 28.17C40.7762 27.6167 40.5684 26.9627 40.5684 26.2019V3.79811C40.5684 3.04042 40.7762 2.38648 41.1943 1.83C41.635 1.27667 42.1709 1 42.7968 1H68.5646C69.1706 1 69.6889 1.27981 70.1321 1.83C70.5728 2.38648 70.7931 3.04356 70.7931 3.79811V15.0031C70.7931 15.7891 70.5703 16.4588 70.1321 17.0153C69.6889 17.5403 69.1656 17.8013 68.5646 17.8013H47.2588C46.6328 17.8013 46.0945 18.0622 45.6563 18.5872C45.2382 19.1406 45.0303 19.8134 45.0303 20.5994C45.0303 21.3854 45.2382 22.011 45.6563 22.5675C46.097 23.1208 46.6328 23.3975 47.2588 23.3975H68.5671C69.1706 23.3975 69.6914 23.6584 70.1346 24.1835C70.5753 24.7368 70.7956 25.4096 70.7956 26.1956C70.7956 26.9816 70.5728 27.6072 70.1346 28.1637C69.6914 28.717 69.1681 28.9937 68.5671 28.9937H42.7968V29Z" fill="black"/>
<path d="M109.704 29C109.053 29 108.498 28.7341 108.037 28.1991C107.602 27.6352 107.386 26.9496 107.386 26.1487V3.85126C107.386 3.07917 107.602 2.41281 108.037 1.84577C108.495 1.28192 109.053 1 109.704 1C110.355 1 110.873 1.28513 111.334 1.84577C111.792 2.41281 112.021 3.08238 112.021 3.85126V20.4366C112.021 21.2375 112.237 21.9263 112.672 22.4869C113.13 23.022 113.687 23.2879 114.338 23.2879H128.932C129.563 23.2879 130.102 23.573 130.562 24.1336C131.021 24.7007 131.25 25.3702 131.25 26.1391C131.25 26.908 131.018 27.6224 130.562 28.1895C130.102 28.7245 129.557 28.9904 128.932 28.9904H109.698L109.704 29Z" fill="black"/>
<path d="M79.9981 12.1981C79.3805 12.1981 78.8522 11.9371 78.4005 11.412C78.1428 11.0943 77.959 10.7327 77.8493 10.3365C77.8237 10.2421 77.8008 10.1447 77.7829 10.044C77.7753 10 77.7676 9.95597 77.7625 9.91509C77.7421 9.74843 77.7268 9.58176 77.7268 9.40251C77.7268 9.22327 77.7421 9.06918 77.7625 8.90566C77.7702 8.86164 77.7778 8.81761 77.7829 8.77988C77.8008 8.68554 77.8263 8.58805 77.8493 8.49686C77.959 8.11007 78.1428 7.75471 78.4005 7.4371C78.8522 6.88364 79.3856 6.60692 79.9981 6.60692H98.1837C98.8013 6.60692 99.3347 6.88679 99.7813 7.4371C100.039 7.75471 100.223 8.11007 100.333 8.49686C100.358 8.58805 100.381 8.68239 100.399 8.77988C100.407 8.8239 100.414 8.86164 100.419 8.90566C100.44 9.06604 100.455 9.2327 100.455 9.40251C100.455 9.57232 100.44 9.75157 100.419 9.91509C100.412 9.95912 100.404 10.0031 100.399 10.044C100.381 10.1447 100.355 10.239 100.333 10.3365C100.223 10.7327 100.039 11.0943 99.7813 11.412C99.3296 11.9371 98.7962 12.1981 98.1837 12.1981H79.9981ZM104.97 3.29874C104.962 3.25472 104.954 3.21698 104.949 3.17296C104.931 3.07862 104.911 2.98113 104.883 2.88994C104.778 2.50314 104.612 2.1478 104.367 1.83019C103.918 1.27673 103.372 1 102.734 1H75.4529C74.8149 1 74.2714 1.27987 73.8196 1.83019C73.5721 2.1478 73.4062 2.50314 73.3041 2.88994C73.2786 2.98113 73.2556 3.07547 73.2378 3.17296C73.2301 3.21698 73.2225 3.25472 73.2174 3.29874C73.1919 3.45912 73.1816 3.62579 73.1816 3.7956V26.2013C73.1816 26.9623 73.3935 27.6132 73.8196 28.1698C74.2688 28.7233 74.8149 29 75.4529 29C76.0909 29 76.6039 28.7201 77.0505 28.1698C77.4996 27.6164 77.7242 26.9623 77.7242 26.2013V20.6006C77.7242 19.8145 77.936 19.1447 78.3622 18.5881C78.8114 18.0629 79.3575 17.8019 79.9955 17.8019H98.1837C98.8217 17.8019 99.3704 18.0629 99.817 18.5881C100.243 19.1415 100.455 19.8145 100.455 20.6006V26.2013C100.455 26.9623 100.682 27.6132 101.129 28.1698C101.58 28.7233 102.114 29 102.726 29C103.339 29 103.908 28.7201 104.36 28.1698C104.786 27.6164 104.998 26.9623 104.998 26.2013V3.79245C105.005 3.62264 104.992 3.45912 104.97 3.29874Z" fill="black"/>
<path d="M30.1108 10.6534C29.6594 11.1907 29.1265 11.4578 28.5145 11.4578H6.81624C6.17873 11.4578 5.63047 11.1907 5.18422 10.6534C4.75836 10.0871 4.54671 9.39854 4.54671 8.59414C4.54671 7.78975 4.75836 7.14302 5.18422 6.57994C5.63302 6.01365 6.17873 5.7305 6.81624 5.7305H28.5145C29.1316 5.7305 29.6594 6.01686 30.1108 6.57994C30.5596 7.14623 30.784 7.81549 30.784 8.59414C30.784 9.36958 30.5571 10.0871 30.1108 10.6534ZM36.3278 22.2753C36.2334 22.2753 34.7901 22.2753 32.5588 22.2527C32.1738 22.2527 31.776 22.1755 31.4011 22.0436C30.9931 21.4837 30.784 20.8241 30.784 20.0584C30.784 19.254 30.9957 18.5686 31.4215 17.9991C31.8703 17.4618 32.416 17.1947 33.0535 17.1947C33.6911 17.1947 34.1985 16.9277 34.6499 16.3903C35.0987 15.824 35.3231 15.1355 35.3231 14.3311V2.86364C35.3231 2.0882 35.0961 1.41895 34.6499 0.84944C34.2011 0.283146 33.6707 0 33.0535 0H2.26953C1.63202 0 1.08886 0.286364 0.637509 0.84944C0.211653 1.41895 0 2.09142 0 2.86364V25.7921C0 26.5707 0.211653 27.2368 0.637509 27.8063C1.08631 28.3726 1.63202 28.6557 2.26953 28.6557C2.90704 28.6557 3.4145 28.3726 3.86585 27.8063C4.31466 27.24 4.53906 26.5707 4.53906 25.7921V20.0616C4.53906 19.2572 4.75071 18.5718 5.17657 18.0023C5.62537 17.465 6.17108 17.1979 6.80859 17.1979H23.9627C24.5772 17.1979 25.1076 17.465 25.559 18.0023C26.0078 18.5686 26.2322 19.2572 26.2322 20.0616C26.2322 20.866 26.4439 21.5127 26.8697 22.0758C27.3185 22.6421 27.8642 22.9252 28.5017 22.9252C30.3531 22.9252 31.294 24.83 31.7658 26.5032C32.1891 28.0026 33.3213 29 34.5836 29H36.315C37.7864 29 38.9773 27.4974 38.9773 25.6409C38.9773 23.7843 37.7864 22.2817 36.315 22.2817L36.3278 22.2753Z" fill="black"/>
</svg>
