<svg width="100" height="100" viewBox="0 0 100 100" fill="none" xmlns="http://www.w3.org/2000/svg">
<path d="M16.6665 65.4411H83.3332V79.1666H16.6665V65.4411ZM16.6665 65.4411H83.3332V43.3613C83.3332 43.3478 83.3222 43.3368 83.3087 43.3368H16.6909C16.6774 43.3368 16.6665 43.3478 16.6665 43.3613V65.4411ZM64.4483 20.8333C68.4855 20.8333 71.7583 24.0978 71.7583 28.1249L71.7332 27.5541L71.8835 27.5138C78.2905 29.679 82.9652 35.5291 83.3124 42.5023L83.3298 43.2888L83.3332 43.3124C83.3332 43.3259 83.3222 43.3368 83.3087 43.3368H16.8317C16.8182 43.3368 16.8072 43.3259 16.8072 43.3124C16.8072 43.3016 16.8143 43.2921 16.8246 43.289L48.2455 33.7822L57.8082 31.1784C57.3783 30.2495 57.1384 29.2152 57.1384 28.1249C57.1384 24.0978 60.4111 20.8333 64.4483 20.8333ZM64.4483 35.4166C68.4855 35.4166 71.7583 32.152 71.7583 28.1249C71.7583 24.0978 68.4855 20.8333 64.4483 20.8333C60.4111 20.8333 57.1384 24.0978 57.1384 28.1249C57.1384 32.152 60.4111 35.4166 64.4483 35.4166Z" fill="#C0723F" stroke="#4E1A0E" stroke-width="2" stroke-linejoin="round"/>
</svg>
