<svg width="117" height="108" viewBox="0 0 117 108" fill="none" xmlns="http://www.w3.org/2000/svg">
<path fill-rule="evenodd" clip-rule="evenodd" d="M69.8839 100.246C74.0885 101.157 78.24 102.096 82.469 102.884C83.3782 103.057 84.2477 102.463 84.4167 101.559C84.5896 100.65 83.99 99.776 83.0861 99.607C78.8812 98.8198 74.7646 97.8904 70.5893 96.9842C69.6866 96.7912 68.7993 97.3643 68.6049 98.2577C68.4119 99.1604 68.9812 100.053 69.8839 100.246Z" fill="#4E1A0E"/>
<path fill-rule="evenodd" clip-rule="evenodd" d="M59.0499 66.3545C70.9629 59.8051 82.5375 52.6577 94.3031 45.8585C95.1017 45.3942 95.3725 44.3747 94.9135 43.58C94.4492 42.7814 93.4337 42.5053 92.6298 42.9657C80.8869 49.7567 69.3351 56.896 57.4432 63.4278C56.6325 63.8749 56.3414 64.8878 56.7831 65.6946C57.2302 66.5054 58.2431 66.7962 59.0499 66.3545Z" fill="#4E1A0E"/>
<path fill-rule="evenodd" clip-rule="evenodd" d="M21.5909 34.7476C26.8594 24.5336 31.8503 14.1564 37.2327 4.00166C37.6587 3.18788 37.3489 2.17991 36.5391 1.74854C35.7239 1.31321 34.7119 1.62838 34.2806 2.43821C28.8956 12.6077 23.8968 22.9957 18.6257 33.2243C18.2051 34.0421 18.5242 35.0487 19.3419 35.4694C20.165 35.894 21.1663 35.5707 21.5909 34.7476Z" fill="#4E1A0E"/>
</svg>
