<svg width="116" height="98" viewBox="0 0 116 98" fill="none" xmlns="http://www.w3.org/2000/svg">
<path fill-rule="evenodd" clip-rule="evenodd" d="M78.1366 92.3151C82.4371 92.4377 86.6903 92.5967 90.9922 92.5938C91.9177 92.5965 92.6631 91.8524 92.6629 90.9329C92.6657 90.0074 91.9156 89.2589 90.9961 89.2591C86.7181 89.2587 82.5008 89.1022 78.2301 88.9793C77.3073 88.9556 76.5405 89.6821 76.5137 90.596C76.4901 91.5188 77.2138 92.2915 78.1366 92.3151Z" fill="#4E1A0E"/>
<path fill-rule="evenodd" clip-rule="evenodd" d="M61.2543 60.994C71.7597 52.3654 81.8225 43.2113 92.1369 34.3643C92.8364 33.761 92.9151 32.7091 92.3179 32.0124C91.7146 31.3128 90.6657 31.2282 89.9601 31.8286C79.6664 40.6634 69.6246 49.8053 59.1369 58.4128C58.4222 59.0013 58.3224 60.0505 58.9049 60.7623C59.4935 61.477 60.5425 61.5766 61.2543 60.994Z" fill="#4E1A0E"/>
<path fill-rule="evenodd" clip-rule="evenodd" d="M18.6218 36.8154C21.9221 25.8068 24.9193 14.6887 28.3424 3.71725C28.6115 2.839 28.1216 1.9052 27.2463 1.63012C26.3649 1.35214 25.4282 1.84804 25.1531 2.72338C21.7302 13.7097 18.7271 24.8399 15.4271 35.8634C15.164 36.7446 15.6628 37.6754 16.5439 37.9385C17.4311 38.2045 18.3559 37.7026 18.6218 36.8154Z" fill="#4E1A0E"/>
</svg>
