<svg width="18" height="18" viewBox="0 0 18 18" fill="none" xmlns="http://www.w3.org/2000/svg">
<path d="M13.5 18H4.5C2.0187 18 0 15.9813 0 13.5V4.5C0 2.0187 2.0187 0 4.5 0H13.5C15.9813 0 18 2.0187 18 4.5V13.5C18 15.9813 15.9813 18 13.5 18ZM4.5 1.5C2.8458 1.5 1.5 2.8458 1.5 4.5V13.5C1.5 15.1542 2.8458 16.5 4.5 16.5H13.5C15.1542 16.5 16.5 15.1542 16.5 13.5V4.5C16.5 2.8458 15.1542 1.5 13.5 1.5H4.5Z" fill="#4E1A0E"/>
<path d="M6 7.43221V12.75C6 13.1642 5.6642 13.5 5.25 13.5C4.8358 13.5 4.5 13.1642 4.5 12.75V7.43221C4.5 7.01801 4.8358 6.68221 5.25 6.68221C5.6642 6.68221 6 7.01801 6 7.43221ZM5.25 4.20001C4.8358 4.20001 4.5 4.53581 4.5 4.95001V5.10001C4.5 5.51421 4.8358 5.85001 5.25 5.85001C5.6642 5.85001 6 5.51421 6 5.10001V4.95001C6 4.53581 5.6642 4.20001 5.25 4.20001ZM11.4779 6.78271C10.7281 6.63541 9.8027 6.83121 8.9965 7.46581C8.9776 7.06841 8.6521 6.75131 8.2501 6.75131C7.8359 6.75131 7.5001 7.08711 7.5001 7.50131V12.75C7.5001 13.1642 7.8359 13.5 8.2501 13.5C8.6643 13.5 9.0001 13.1642 9.0001 12.75V9.95211C9.0088 9.93481 9.0197 9.91941 9.0272 9.90121C9.5418 8.64251 10.504 8.12001 11.1887 8.25461C11.7043 8.35591 12.0001 8.82311 12.0001 9.53631V12.75C12.0001 13.1642 12.3359 13.5 12.7501 13.5C13.1643 13.5 13.5001 13.1642 13.5001 12.75V9.53631C13.5 8.10491 12.7063 7.02411 11.4779 6.78271Z" fill="#4E1A0E"/>
</svg>
