<svg width="135" height="196" viewBox="0 0 135 196" fill="none" xmlns="http://www.w3.org/2000/svg">
<path fill-rule="evenodd" clip-rule="evenodd" d="M68.0599 37.4189C69.3498 38.4539 70.4662 39.339 71.0587 39.8036C74.6705 42.6225 82.792 50.7123 90.346 54.4094C96.1081 57.2319 101.558 57.5135 105.06 52.5554C108.242 48.0489 107.183 41.824 103.467 35.2201C95.4693 21.0073 75.4339 4.75273 68.113 1.40523C67.3136 1.04021 66.3718 1.38974 66.0068 2.18916C65.6432 2.98484 65.9928 3.9266 66.7922 4.29162C73.8168 7.50575 93.0218 23.1337 100.7 36.778C103.701 42.1115 105.035 47.0844 102.464 50.7243C99.9274 54.3178 95.9209 53.6038 91.7437 51.5575C84.3913 47.9609 76.5284 40.0456 73.0131 37.2991C70.8084 35.5784 62.5857 28.7787 61.7405 28.3657C60.6826 27.8477 60.0114 28.4841 59.8069 28.7094C59.6481 28.8839 58.9127 29.8049 59.8319 30.9183C72.9285 46.8028 82.0311 80.2427 78.8922 110.833C75.7811 141.155 60.5556 168.742 24.7372 173.242C23.8674 173.353 23.2502 174.148 23.3574 175.016C23.4683 175.886 24.2634 176.503 25.1332 176.392C62.6631 171.677 78.7927 142.925 82.0523 111.16C84.8002 84.388 78.3415 55.5222 68.0599 37.4189Z" fill="#4E1A0E"/>
<path fill-rule="evenodd" clip-rule="evenodd" d="M26.7635 174.331C29.349 171.622 32.0095 169.007 34.386 166.095C40.7186 158.339 45.656 148.939 47.6251 139.085C47.7955 138.222 47.2361 137.387 46.3785 137.215C45.5157 137.044 44.681 137.604 44.5084 138.461C42.6452 147.814 37.9337 156.727 31.925 164.084C29.2032 167.416 26.1007 170.357 23.1767 173.502C23.0327 173.66 21.7203 174.988 21.5204 175.344C21.0499 176.171 21.3832 176.814 21.5756 177.092C21.7335 177.326 21.9785 177.568 22.3696 177.734C22.6912 177.869 23.3616 177.981 24.2899 177.94C27.2638 177.819 34.1599 176.542 35.314 176.452C48.5437 175.419 61.0252 176.68 74.199 177.678C75.0737 177.741 75.8385 177.085 75.9054 176.212C75.9723 175.339 75.3152 174.578 74.4419 174.511C61.1014 173.499 48.4601 172.24 35.0697 173.288C34.2762 173.347 29.8998 173.916 26.7635 174.331Z" fill="#4E1A0E"/>
</svg>
