<svg width="56" height="56" viewBox="0 0 56 56" fill="none" xmlns="http://www.w3.org/2000/svg">
<path d="M23.3724 11.6665L41.2043 25.9559C44.6573 28.7229 46.6668 32.9083 46.6668 37.3332C46.6668 41.1992 43.5328 44.3332 39.6668 44.3332H16.7232C12.6418 44.3332 9.33325 41.0246 9.33325 36.9432C9.33325 34.8739 10.2009 32.8994 11.7251 31.4998L20.2676 23.6561C23.5741 20.6202 24.7897 15.9257 23.3724 11.6665ZM23.3724 11.6665L33.1535 24.7298C35.8771 28.3673 37.349 32.7891 37.349 37.3332C37.349 41.1992 34.215 44.3332 30.349 44.3332H26.8665C22.8092 44.3332 19.5201 41.0441 19.5201 36.9868C19.5201 36.1318 19.6693 35.2835 19.9611 34.4799L23.1843 25.6011C24.8147 21.11 24.881 16.2 23.3724 11.6665Z" fill="#C0723F"/>
<path d="M23.3724 11.6665L41.2043 25.9559C44.6573 28.7229 46.6668 32.9083 46.6668 37.3332C46.6668 41.1992 43.5328 44.3332 39.6668 44.3332H16.7232C12.6418 44.3332 9.33325 41.0246 9.33325 36.9432C9.33325 34.8739 10.2009 32.8994 11.7251 31.4998L20.2676 23.6561C23.5741 20.6202 24.7897 15.9257 23.3724 11.6665ZM23.3724 11.6665L33.1535 24.7298C35.8771 28.3673 37.349 32.7891 37.349 37.3332C37.349 41.1992 34.215 44.3332 30.349 44.3332H26.8665C22.8092 44.3332 19.5201 41.0441 19.5201 36.9868C19.5201 36.1318 19.6693 35.2835 19.9611 34.4799L23.1843 25.6011C24.8147 21.11 24.881 16.2 23.3724 11.6665Z" stroke="#4E1A0E" stroke-width="2" stroke-linejoin="round"/>
</svg>
