<svg width="80" height="80" viewBox="0 0 80 80" fill="none" xmlns="http://www.w3.org/2000/svg">
<g clip-path="url(#clip0_395_352)">
<path d="M40.0892 30.3016C46.6377 30.7029 51.621 36.3368 51.2197 42.8854C51.1231 44.4619 50.4828 46.4683 49.2988 48.9046L48.7138 50.0596C48.0901 51.2451 47.3507 52.5222 46.4954 53.8909L45.6015 55.2901C45.4461 55.5283 45.2875 55.7692 45.1256 56.0126L44.1159 57.5033C43.9412 57.7569 43.7633 58.013 43.5821 58.2716L42.4566 59.854L41.2539 61.4974C40.8401 62.0554 40.4135 62.6235 39.974 63.2018L38.6168 64.9674C38.3842 65.2667 38.1484 65.5686 37.9093 65.873L36.7433 63.92C36.3662 63.2806 36.0006 62.653 35.6465 62.037L34.6189 60.224C34.4534 59.9277 34.2907 59.6343 34.131 59.3438L33.2071 57.6358L32.3524 55.9979C32.079 55.4636 31.8172 54.9409 31.5669 54.43L30.8505 52.9321C30.1688 51.4692 29.5908 50.1114 29.1166 48.8586L28.6769 47.6408C27.7993 45.0782 27.4088 43.0086 27.5054 41.4321C27.9067 34.8836 33.5407 29.9003 40.0892 30.3016ZM50.4469 16.6543L42.6786 26.8898L42.7513 25.704L38.0084 25.4134L37.9358 26.5991L31.4754 15.4917L50.4469 16.6543ZM38.0084 25.4134L42.7513 25.704L42.4606 30.4469L37.7178 30.1562L38.0084 25.4134ZM48.6909 50.103L47.745 51.7464C47.593 52.007 47.4439 52.261 47.2976 52.5084L46.4539 53.913L45.6784 55.1583L44.971 56.2444L44.243 57.3069L42.9929 59.061L41.4237 61.2007L39.5352 63.726L37.9093 65.873L32.0747 55.4512L48.6909 50.103Z" fill="white"/>
<path d="M37.9093 65.873C38.1484 65.5686 38.3842 65.2667 38.6168 64.9674L39.974 63.2018C40.4135 62.6235 40.8401 62.0554 41.2539 61.4974L42.4566 59.854L43.5821 58.2716C43.7633 58.013 43.9412 57.7569 44.1159 57.5033L45.1256 56.0126C45.2875 55.7692 45.4461 55.5283 45.6015 55.2901L46.4954 53.8909C47.3507 52.5222 48.0901 51.2451 48.7138 50.0596L49.2988 48.9046C50.4828 46.4683 51.1231 44.4619 51.2197 42.8854C51.621 36.3368 46.6377 30.7029 40.0892 30.3016C33.5407 29.9003 27.9067 34.8836 27.5054 41.4321C27.4088 43.0086 27.7993 45.0782 28.6769 47.6408L29.1166 48.8586C29.5908 50.1114 30.1688 51.4692 30.8505 52.9321L31.5669 54.43C31.8172 54.9409 32.079 55.4636 32.3524 55.9979L33.2071 57.6358L34.131 59.3438C34.2907 59.6343 34.4534 59.9277 34.6189 60.224L35.6465 62.037C36.0006 62.653 36.3662 63.2807 36.7433 63.92L37.9093 65.873ZM37.9093 65.873L39.5352 63.726L41.4237 61.2007L42.9929 59.061L44.243 57.3069L44.971 56.2444L45.6784 55.1583L46.4539 53.913L47.2976 52.5084C47.4439 52.261 47.593 52.007 47.745 51.7464L48.6909 50.103L32.0747 55.4512L37.9093 65.873ZM42.7513 25.704L42.6786 26.8898L50.4469 16.6543L31.4754 15.4917L37.9358 26.5991L38.0084 25.4134M42.7513 25.704L38.0084 25.4134M42.7513 25.704L42.4606 30.4469L37.7178 30.1562L38.0084 25.4134M41.0379 14.8214L40.6342 21.4087" stroke="#4E1A0E" stroke-width="2" stroke-linejoin="round"/>
</g>
<defs>
<clipPath id="clip0_395_352">
<rect width="56" height="56" fill="white" transform="translate(0 37.1017) rotate(-41.4932)"/>
</clipPath>
</defs>
</svg>
