<svg width="24" height="24" viewBox="0 0 24 24" fill="none" xmlns="http://www.w3.org/2000/svg">
<path d="M16.2054 5.26491L9.71444 7.42858L9.71443 7.42858C8.08097 7.97307 7.26424 8.24531 6.93893 8.55792C6.11997 9.3449 6.11997 10.6551 6.93893 11.4421C7.26424 11.7547 8.08097 12.0269 9.71443 12.5714L9.71444 12.5714C10.0435 12.6811 10.2081 12.736 10.354 12.8132C10.709 13.0009 10.9993 13.2911 11.187 13.6461C11.2642 13.7921 11.319 13.9566 11.4287 14.2857C11.9732 15.9192 12.2455 16.7359 12.5581 17.0612C13.345 17.8802 14.6553 17.8802 15.4422 17.0612C15.7548 16.7359 16.0271 15.9192 16.5716 14.2857L16.5716 14.2857L18.7352 7.79474C19.2872 6.13895 19.5631 5.31105 19.1261 4.87404C18.6891 4.43702 17.8612 4.71299 16.2054 5.26491Z" fill="white"/>
<path d="M9.71444 7.42858L9.47727 6.71706L9.45636 6.72403L9.4359 6.73222L9.71444 7.42858ZM16.2054 5.26491L16.4426 5.97643L16.2054 5.26491ZM18.7352 7.79474L18.0237 7.55757V7.55757L18.7352 7.79474ZM16.5716 14.2857L17.2831 14.5229L16.5716 14.2857ZM15.4422 17.0612L14.9015 16.5416L15.4422 17.0612ZM11.4287 14.2857L12.1402 14.0485H12.1402L11.4287 14.2857ZM12.5581 17.0612L13.0988 16.5416H13.0988L12.5581 17.0612ZM9.71444 12.5714L9.43589 13.2678L9.45636 13.276L9.47727 13.2829L9.71444 12.5714ZM9.71443 12.5714L9.99297 11.8751L9.97251 11.8669L9.9516 11.8599L9.71443 12.5714ZM6.93893 11.4421L7.4586 10.9013H7.45859L6.93893 11.4421ZM9.71443 7.42858L9.9516 8.14009L9.97251 8.13312L9.99297 8.12494L9.71443 7.42858ZM6.93893 8.55792L7.45859 9.0987H7.4586L6.93893 8.55792ZM10.354 12.8132L10.0034 13.4762L10.0034 13.4762L10.354 12.8132ZM11.187 13.6461L10.524 13.9968L10.524 13.9968L11.187 13.6461ZM19.1261 4.87404L18.5958 5.40437L18.5958 5.40437L19.1261 4.87404ZM9.95161 8.14009L16.4426 5.97643L15.9683 4.5534L9.47727 6.71706L9.95161 8.14009ZM18.0237 7.55757L15.8601 14.0485L17.2831 14.5229L19.4468 8.03191L18.0237 7.55757ZM15.8601 14.0485L15.8601 14.0486L17.2831 14.5229L17.2831 14.5229L15.8601 14.0485ZM15.8601 14.0486C15.5852 14.8733 15.3879 15.4642 15.2213 15.8914C15.0446 16.3441 14.9429 16.4985 14.9015 16.5416L15.983 17.5809C16.2542 17.2987 16.4449 16.882 16.6187 16.4366C16.8024 15.9658 17.0135 15.3316 17.2831 14.5229L15.8601 14.0486ZM10.7172 14.5229C10.9868 15.3316 11.1979 15.9658 11.3816 16.4366C11.5554 16.882 11.7461 17.2987 12.0173 17.5809L13.0988 16.5416C13.0574 16.4985 12.9557 16.3441 12.779 15.8914C12.6124 15.4642 12.4151 14.8733 12.1402 14.0485L10.7172 14.5229ZM14.9015 16.5416C14.4096 17.0534 13.5907 17.0534 13.0988 16.5416L12.0173 17.5809C13.0994 18.707 14.9009 18.707 15.983 17.5809L14.9015 16.5416ZM9.99298 11.8751L9.99297 11.8751L9.43589 13.2678L9.43589 13.2678L9.99298 11.8751ZM9.9516 11.8599C9.12688 11.585 8.53592 11.3878 8.10873 11.2211C7.65607 11.0445 7.5017 10.9427 7.4586 10.9013L6.41926 11.9829C6.70146 12.2541 7.11811 12.4447 7.56351 12.6185C8.03438 12.8022 8.66852 13.0134 9.47726 13.2829L9.9516 11.8599ZM9.4359 6.73222L9.43589 6.73222L9.99297 8.12494L9.99298 8.12493L9.4359 6.73222ZM9.47726 6.71707C8.66852 6.98664 8.03439 7.19778 7.56351 7.3815C7.11811 7.55528 6.70146 7.74595 6.41926 8.01713L7.4586 9.0987C7.5017 9.05727 7.65607 8.95552 8.10873 8.7789C8.53592 8.61223 9.12688 8.415 9.9516 8.14009L9.47726 6.71707ZM7.45859 10.9013C6.94674 10.4094 6.94674 9.59056 7.45859 9.0987L6.41926 8.01713C5.29319 9.09924 5.29319 10.9008 6.41926 11.9829L7.45859 10.9013ZM9.47727 13.2829C9.83044 13.4007 9.92505 13.4347 10.0034 13.4762L10.7047 12.1502C10.4911 12.0372 10.2566 11.9616 9.95161 11.8599L9.47727 13.2829ZM12.1402 14.0485C12.0386 13.7435 11.9629 13.509 11.85 13.2955L10.524 13.9968C10.5654 14.0751 10.5995 14.1697 10.7172 14.5229L12.1402 14.0485ZM10.0034 13.4762C10.2253 13.5935 10.4067 13.7749 10.524 13.9968L11.85 13.2955C11.5918 12.8074 11.1928 12.4083 10.7047 12.1502L10.0034 13.4762ZM16.4426 5.97643C17.2947 5.69239 17.8528 5.50842 18.2542 5.43703C18.6609 5.36467 18.6484 5.45702 18.5958 5.40437L19.6564 4.34371C19.1668 3.85404 18.5218 3.86586 17.9915 3.96021C17.4556 4.05553 16.7719 4.28551 15.9683 4.5534L16.4426 5.97643ZM19.4468 8.03191C19.7146 7.22822 19.9446 6.54453 20.0399 6.0087C20.1343 5.47831 20.1461 4.83337 19.6564 4.34371L18.5958 5.40437C18.5431 5.35171 18.6355 5.33923 18.5631 5.74599C18.4917 6.14731 18.3078 6.70546 18.0237 7.55757L19.4468 8.03191Z" fill="#4E1A0E"/>
</svg>
