<svg width="137" height="137" viewBox="0 0 137 137" fill="none" xmlns="http://www.w3.org/2000/svg">
<path d="M55.0793 76.0883L54.0473 82.9527L60.9117 81.9207L67.451 80.8495L73.6649 79.7389L79.5537 78.589L85.1173 77.3998L90.3556 76.1713C108.121 71.8028 119.91 66.7119 125.723 60.8986C139.426 47.196 139.426 24.9796 125.723 11.277C112.02 -2.42566 89.804 -2.42566 76.1014 11.277C70.2881 17.0902 65.1972 28.8794 60.8287 46.6444L59.6002 51.8827L58.411 57.4463L57.2611 63.3351L56.1505 69.549L55.0793 76.0883ZM54.0473 82.9527C81.6149 73.7635 101.831 62.7365 114.696 49.8716C133.993 30.5743 133.993 19.5473 125.723 11.277C117.453 3.0067 106.426 3.00671 87.1284 22.304C74.2635 35.1689 63.2365 55.3851 54.0473 82.9527ZM34.75 85.7095L45.777 91.223L51.2905 102.25L20.9662 132.574C16.3987 137.142 8.99321 137.142 4.42566 132.574C-0.141887 128.007 -0.141887 120.601 4.42566 116.034L34.75 85.7095Z" fill="white"/>
<path d="M54.0473 82.9527L55.0793 76.0883L56.1505 69.549L57.2611 63.3351L58.411 57.4463L59.6002 51.8827L60.8287 46.6444C65.1972 28.8794 70.2881 17.0902 76.1014 11.277C89.804 -2.42566 112.02 -2.42566 125.723 11.277M54.0473 82.9527L60.9117 81.9207L67.451 80.8495L73.6649 79.7389L79.5537 78.589L85.1173 77.3998L90.3556 76.1713C108.121 71.8028 119.91 66.7119 125.723 60.8986C139.426 47.196 139.426 24.9796 125.723 11.277M54.0473 82.9527C81.6149 73.7635 101.831 62.7365 114.696 49.8716C133.993 30.5743 133.993 19.5473 125.723 11.277M54.0473 82.9527C63.2365 55.3851 74.2635 35.1689 87.1284 22.304C106.426 3.00671 117.453 3.0067 125.723 11.277M124.75 12.25L42.25 94.75M34.75 85.7095L45.777 91.223L51.2905 102.25L20.9662 132.574C16.3987 137.142 8.99321 137.142 4.42566 132.574C-0.141887 128.007 -0.141887 120.601 4.42566 116.034L34.75 85.7095Z" stroke="#4E1A0E" stroke-width="2" stroke-linejoin="round"/>
</svg>
