<svg width="58" height="58" viewBox="0 0 58 58" fill="none" xmlns="http://www.w3.org/2000/svg">
<path d="M7.89543 29.4183L8.29352 29.0152L8.28979 12.5402C8.28979 8.94978 11.2004 6.03915 14.7909 6.03915C18.3813 6.03915 21.2919 8.94978 21.2919 12.5402L21.2912 16.0184L32.0294 5.28427C37.7418 -0.42809 47.0034 -0.42809 52.7157 5.28427C58.4281 10.9966 58.4281 20.2582 52.7157 25.9706L28.5817 50.1046L7.89543 29.4183ZM7.89543 29.4183L28.5817 50.1046L21.6863 57L1 36.3137L7.89543 29.4183Z" fill="#29ABCA"/>
<path d="M7.89543 29.4183L8.29352 29.0152L8.28979 12.5402C8.28979 8.94978 11.2004 6.03915 14.7909 6.03915C18.3813 6.03915 21.2919 8.94978 21.2919 12.5402L21.2912 16.0184L32.0294 5.28427C37.7418 -0.42809 47.0034 -0.42809 52.7157 5.28427C58.4281 10.9966 58.4281 20.2582 52.7157 25.9706L28.5817 50.1046M7.89543 29.4183L28.5817 50.1046M7.89543 29.4183L1 36.3137L21.6863 57L28.5817 50.1046" stroke="#4E1A0E" stroke-width="2" stroke-linejoin="round"/>
</svg>
