<svg width="220" height="337" viewBox="0 0 220 337" fill="none" xmlns="http://www.w3.org/2000/svg">
<path d="M9.42 11.68L1.49012e-08 7.54V6.54L9.42 1.84V3.4L1.88 6.96L9.42 10.12V11.68ZM15.7453 3.96C18.0653 3.96 19.2653 4.74 20.1653 6.28C19.9853 6.34 18.8053 6.98 18.7053 7.04C18.1853 6.04 17.2453 5.48 15.6453 5.48C14.1053 5.48 13.5053 6.08 13.5453 6.86C13.5853 7.82 14.4653 8.1 16.1853 8.3C18.9653 8.62 20.3053 9.5 20.3053 11.3C20.3053 13.18 18.8453 14.3 16.2653 14.3C13.6253 14.3 11.8653 13.44 10.9853 11.44C11.1853 11.36 12.3453 10.78 12.5253 10.66C13.0453 12.02 14.3853 12.78 16.3053 12.78C17.9653 12.78 18.5253 12.16 18.5253 11.38C18.5253 10.46 17.7853 10.08 15.8253 9.8C13.1053 9.42 11.8053 8.64 11.8053 6.8C11.8053 5.18 13.1453 3.96 15.7453 3.96ZM25.9419 1.84C25.9019 2.34 25.8819 3.24 25.8619 4.28C27.6019 4.28 29.3819 4.26 29.9419 4.22C29.9219 4.8 29.9619 5.44 29.9819 6C29.4019 5.96 27.5819 5.94 25.8219 5.94C25.8019 7.7 25.8019 9.44 25.8019 10.16C25.8019 11.74 26.3219 12.44 27.6619 12.44C28.4619 12.44 28.9819 12.14 29.5619 11.8C29.7619 12.3 30.1019 12.92 30.3619 13.4C29.4619 13.96 28.5419 14.2 27.5019 14.2C24.9619 14.2 23.9619 12.96 23.9619 10.52C23.9619 9.36 24.0019 7.66 24.0219 5.96C23.1419 5.96 22.4219 5.98 22.1419 6C22.1619 5.42 22.1619 4.8 22.1019 4.22C22.4019 4.26 23.1219 4.26 24.0419 4.28C24.0419 3.38 24.0419 2.54 24.0219 1.84C24.7819 1.86 25.3219 1.86 25.9419 1.84ZM40.2503 4.24C40.7703 4.26 41.9303 4.26 42.4903 4.24C41.0503 7.38 39.4303 11.18 38.5103 13.06C37.0303 16.14 36.1503 17.98 33.2703 17.98C32.2703 17.98 31.2703 17.82 30.7303 17.56C30.7503 17.26 31.1103 15.96 31.1303 15.7C31.6703 16.04 32.3703 16.18 33.2103 16.18C34.6903 16.18 35.3903 15.36 36.0503 14.22C34.4503 10.68 32.2103 5.96 31.3703 4.24C31.9503 4.26 33.0103 4.26 33.5903 4.24C33.9703 5.5 35.8303 9.56 37.0103 12.32H37.2903C38.2503 9.74 39.5303 6.62 40.2503 4.24ZM44.2505 0.5H46.2505C46.1905 3.62 46.1305 10.38 46.1705 14H44.2305C44.3105 10.78 44.3505 3.78 44.2505 0.5ZM53.5128 5.5C51.5528 5.5 50.3928 6.48 50.1928 8.5C51.7128 8.5 54.2528 8.52 56.3728 8.46C56.4128 6.62 55.3528 5.5 53.5128 5.5ZM58.1328 11.78C57.4528 13.18 55.9728 14.22 53.6128 14.22C49.9128 14.22 48.3328 12.14 48.3328 9.14C48.3328 6.12 50.0128 4.02 53.5128 4.02C56.2728 4.02 58.2128 5.44 58.2128 8.5C58.2128 8.8 58.1528 9.28 58.0928 9.7C55.7928 9.66 52.1928 9.62 50.1928 9.68C50.3528 11.68 51.4928 12.66 53.6328 12.66C55.4728 12.66 56.3328 11.8 56.7328 10.94C57.0328 11.16 57.7728 11.6 58.1328 11.78ZM59.9609 10.12L67.5009 6.98L59.9609 3.4V1.84L69.3809 6.54V7.54L59.9609 11.68V10.12ZM38.6188 72C37.9788 71.96 37.3188 71.96 36.6388 72C36.6988 70.44 36.7188 67.62 36.7188 66.48C36.7188 64.44 35.9988 63.64 34.5388 63.64C32.8988 63.64 31.4388 65.28 31.4388 67.52C31.4188 68.88 31.3988 70.24 31.4188 72C30.7988 71.96 30.1388 71.96 29.4588 72C29.5188 70.44 29.5588 67.62 29.5588 66.48C29.5588 64.44 28.8388 63.64 27.3588 63.64C25.7388 63.64 24.2788 65.28 24.2588 67.52C24.2588 68.66 24.2188 70.26 24.2988 72C23.6388 71.98 22.8988 71.96 22.2788 72C22.3588 70.1 22.3988 65.66 22.2788 62.22C22.5388 62.24 23.8588 62.24 24.1988 62.22C24.1988 62.7 24.1588 63.66 24.1788 65.12H24.2788C24.9188 62.9 26.3588 62 27.9388 62C30.0588 62 31.0588 63.36 31.3188 65.1L31.4588 65.12C32.0988 62.9 33.5388 62 35.1188 62C37.5988 62 38.6388 63.56 38.6388 66.1C38.6388 67.48 38.5588 69.16 38.6188 72ZM44.9356 70.76C46.8156 70.76 47.8956 69.78 47.8956 67.76C46.9956 67.66 46.0956 67.64 45.3156 67.64C43.3156 67.64 42.7156 68.36 42.7156 69.22C42.7156 70.28 43.4556 70.76 44.9356 70.76ZM49.9756 72H48.0756C48.0156 71.1 47.9756 70.56 47.9356 70.12H47.8756C47.1556 71.6 45.7356 72.2 44.3756 72.2C41.8756 72.2 40.8556 70.94 40.8556 69.44C40.8556 67.74 42.0356 66.64 45.0556 66.64C45.9756 66.64 46.9956 66.68 47.9156 66.8C47.9156 66.48 47.9356 66.22 47.9356 66.02C47.9356 64.54 47.2756 63.58 45.5556 63.58C44.1156 63.58 43.3556 64.36 43.1356 65.58C42.5156 65.4 41.8956 65.28 41.2556 65.2C41.6756 63.46 42.9356 62.02 45.6156 62.02C48.2756 62.02 49.8156 63.44 49.8156 66C49.8156 67.06 49.8156 70.54 49.9756 72ZM58.808 62.12L58.468 64.12C58.148 64 57.728 63.94 57.328 63.94C55.988 63.94 54.728 65.4 54.728 67.66C54.728 68.78 54.688 70.32 54.748 72C54.088 71.98 53.348 71.96 52.728 72C52.808 70.1 52.848 65.66 52.728 62.22C52.988 62.24 54.248 62.24 54.588 62.22C54.608 62.74 54.528 63.92 54.528 65.56H54.628C55.148 63.08 56.048 62 57.748 62C58.148 62 58.488 62.04 58.808 62.12ZM69.8223 73.62C69.8223 75.68 68.3023 76.52 64.5423 76.52C60.4223 76.52 59.2223 75.68 59.2223 74.02C59.2223 72.74 60.2023 72.04 61.6623 71.84V71.7C60.6623 71.44 60.2223 70.98 60.2223 70.32C60.2223 69.56 60.7623 68.98 62.1423 68.68V68.52C60.5423 68.08 59.8223 66.98 59.8223 65.56C59.8223 63.56 61.2623 62.06 64.5023 62.06C66.3423 62.06 67.9223 62.28 70.1023 62.24C70.0823 62.74 70.0823 63.3 70.1023 63.84C69.4023 63.68 68.3423 63.42 67.3223 63.24L67.2823 63.4C68.3823 63.9 69.0023 64.78 68.9823 66.12C69.0023 67.84 67.6423 69.16 64.4823 69.16C62.3423 69.16 61.7823 69.52 61.7823 70.1C61.7823 70.66 62.3623 70.82 64.8023 70.86C68.6223 70.94 69.8223 71.64 69.8223 73.62ZM68.1023 73.68C68.1023 72.64 67.2623 72.24 64.5623 72.24C61.9223 72.24 61.0223 72.66 61.0223 73.74C61.0223 74.72 62.1423 75.16 64.5623 75.16C67.0023 75.16 68.1023 74.68 68.1023 73.68ZM67.1623 65.72C67.1623 64.26 66.1623 63.56 64.4623 63.56C62.6823 63.56 61.6423 64.26 61.6423 65.72C61.6423 67.08 62.6823 67.76 64.4623 67.76C66.1623 67.76 67.1623 67.08 67.1623 65.72ZM72.2778 62.22C72.5778 62.24 74.0178 62.24 74.3178 62.22C74.2978 62.96 74.1778 68.78 74.2578 72H72.2778C72.4178 69.38 72.3978 65.02 72.2778 62.22ZM74.7378 58.76C74.7378 59.5 74.2978 60.04 73.3578 60.04C72.3578 60.04 71.9578 59.5 71.9578 58.76C71.9578 58.12 72.4178 57.5 73.3578 57.5C74.2578 57.5 74.7378 58.12 74.7378 58.76ZM86.6341 72C85.9941 71.96 85.3341 71.96 84.6541 72C84.7141 70.44 84.7541 67.62 84.7541 66.48C84.7541 64.44 84.0341 63.64 82.5541 63.64C80.9341 63.64 79.4741 65.28 79.4541 67.52C79.4541 68.66 79.4141 70.26 79.4741 72C78.8341 71.98 78.0941 71.96 77.4541 72C77.5541 70.1 77.5941 65.66 77.4741 62.22C77.7341 62.24 79.0541 62.24 79.3941 62.22C79.3941 62.7 79.3541 63.66 79.3741 65.12H79.4741C80.1141 62.9 81.5541 62 83.1341 62C85.6141 62 86.6541 63.56 86.6541 66.1C86.6541 67.48 86.5741 69.16 86.6341 72ZM99.8442 65.7C99.8442 61.98 101.744 59.14 105.784 59.14C109.824 59.14 111.704 61.98 111.704 65.72C111.704 69.44 109.784 72.3 105.784 72.3C101.784 72.3 99.8442 69.44 99.8442 65.7ZM109.724 65.72C109.724 62.66 108.244 60.92 105.784 60.92C103.324 60.92 101.824 62.66 101.824 65.72C101.824 68.8 103.324 70.52 105.784 70.52C108.244 70.52 109.724 68.8 109.724 65.72ZM119.18 65.7C119.18 61.98 121.08 59.14 125.12 59.14C129.16 59.14 131.04 61.98 131.04 65.72C131.04 69.44 129.12 72.3 125.12 72.3C121.12 72.3 119.18 69.44 119.18 65.7ZM129.06 65.72C129.06 62.66 127.58 60.92 125.12 60.92C122.66 60.92 121.16 62.66 121.16 65.72C121.16 68.8 122.66 70.52 125.12 70.52C127.58 70.52 129.06 68.8 129.06 65.72ZM149.456 70.08C149.456 70.5 149.476 71.32 149.476 72C146.156 71.94 141.356 71.96 138.576 72C138.516 71.28 138.516 70.78 138.516 70.44C138.536 68.08 139.816 67 144.096 65.92C146.736 65.24 147.376 64.36 147.376 63.16C147.376 61.58 146.176 60.86 144.396 60.86C142.516 60.86 141.176 61.82 140.936 63.98C140.336 63.84 139.556 63.76 138.976 63.72C139.336 60.62 141.576 59.16 144.416 59.16C147.396 59.16 149.316 60.54 149.316 63.08C149.316 65.06 148.276 66.38 144.516 67.26C140.816 68.18 140.256 68.76 140.276 70.3C143.276 70.3 146.336 70.28 149.456 70.08ZM156.501 63.5C154.541 63.5 153.381 64.48 153.181 66.5C154.701 66.5 157.241 66.52 159.361 66.46C159.401 64.62 158.341 63.5 156.501 63.5ZM161.121 69.78C160.441 71.18 158.961 72.22 156.601 72.22C152.901 72.22 151.321 70.14 151.321 67.14C151.321 64.12 153.001 62.02 156.501 62.02C159.261 62.02 161.201 63.44 161.201 66.5C161.201 66.8 161.141 67.28 161.081 67.7C158.781 67.66 155.181 67.62 153.181 67.68C153.341 69.68 154.481 70.66 156.621 70.66C158.461 70.66 159.321 69.8 159.721 68.94C160.021 69.16 160.761 69.6 161.121 69.78ZM179.849 72C179.209 71.96 178.549 71.96 177.869 72C177.929 70.44 177.949 67.62 177.949 66.48C177.949 64.44 177.229 63.64 175.769 63.64C174.129 63.64 172.669 65.28 172.669 67.52C172.649 68.88 172.629 70.24 172.649 72C172.029 71.96 171.369 71.96 170.689 72C170.749 70.44 170.789 67.62 170.789 66.48C170.789 64.44 170.069 63.64 168.589 63.64C166.969 63.64 165.509 65.28 165.489 67.52C165.489 68.66 165.449 70.26 165.529 72C164.869 71.98 164.129 71.96 163.509 72C163.589 70.1 163.629 65.66 163.509 62.22C163.769 62.24 165.089 62.24 165.429 62.22C165.429 62.7 165.389 63.66 165.409 65.12H165.509C166.149 62.9 167.589 62 169.169 62C171.289 62 172.289 63.36 172.549 65.1L172.689 65.12C173.329 62.9 174.769 62 176.349 62C178.829 62 179.869 63.56 179.869 66.1C179.869 67.48 179.789 69.16 179.849 72ZM22.2388 174.5H24.2388C24.1788 177.62 24.1188 184.38 24.1588 188H22.2188C22.2988 184.78 22.3388 177.78 22.2388 174.5ZM27.1411 178.22C27.4411 178.24 28.8811 178.24 29.1811 178.22C29.1611 178.96 29.0411 184.78 29.1211 188H27.1411C27.2811 185.38 27.2611 181.02 27.1411 178.22ZM29.6011 174.76C29.6011 175.5 29.1611 176.04 28.2211 176.04C27.2211 176.04 26.8211 175.5 26.8211 174.76C26.8211 174.12 27.2811 173.5 28.2211 173.5C29.1211 173.5 29.6011 174.12 29.6011 174.76ZM36.0773 177.96C38.3973 177.96 39.5973 178.74 40.4973 180.28C40.3173 180.34 39.1373 180.98 39.0373 181.04C38.5173 180.04 37.5773 179.48 35.9773 179.48C34.4373 179.48 33.8373 180.08 33.8773 180.86C33.9173 181.82 34.7973 182.1 36.5173 182.3C39.2973 182.62 40.6373 183.5 40.6373 185.3C40.6373 187.18 39.1773 188.3 36.5973 188.3C33.9573 188.3 32.1973 187.44 31.3173 185.44C31.5173 185.36 32.6773 184.78 32.8573 184.66C33.3773 186.02 34.7173 186.78 36.6373 186.78C38.2973 186.78 38.8573 186.16 38.8573 185.38C38.8573 184.46 38.1173 184.08 36.1573 183.8C33.4373 183.42 32.1373 182.64 32.1373 180.8C32.1373 179.18 33.4773 177.96 36.0773 177.96ZM46.2739 175.84C46.2339 176.34 46.2139 177.24 46.1939 178.28C47.9339 178.28 49.7139 178.26 50.2739 178.22C50.2539 178.8 50.2939 179.44 50.3139 180C49.7339 179.96 47.9139 179.94 46.1539 179.94C46.1339 181.7 46.1339 183.44 46.1339 184.16C46.1339 185.74 46.6539 186.44 47.9939 186.44C48.7939 186.44 49.3139 186.14 49.8939 185.8C50.0939 186.3 50.4339 186.92 50.6939 187.4C49.7939 187.96 48.8739 188.2 47.8339 188.2C45.2939 188.2 44.2939 186.96 44.2939 184.52C44.2939 183.36 44.3339 181.66 44.3539 179.96C43.4739 179.96 42.7539 179.98 42.4739 180C42.4939 179.42 42.4939 178.8 42.4339 178.22C42.7339 178.26 43.4539 178.26 44.3739 178.28C44.3739 177.38 44.3739 176.54 44.3539 175.84C45.1139 175.86 45.6539 175.86 46.2739 175.84ZM52.2023 183.42V181.86H57.0423V183.42H52.2023ZM63.1477 177.96C65.4677 177.96 66.6677 178.74 67.5677 180.28C67.3877 180.34 66.2077 180.98 66.1077 181.04C65.5877 180.04 64.6477 179.48 63.0477 179.48C61.5077 179.48 60.9077 180.08 60.9477 180.86C60.9877 181.82 61.8677 182.1 63.5877 182.3C66.3677 182.62 67.7077 183.5 67.7077 185.3C67.7077 187.18 66.2477 188.3 63.6677 188.3C61.0277 188.3 59.2677 187.44 58.3877 185.44C58.5877 185.36 59.7477 184.78 59.9277 184.66C60.4477 186.02 61.7877 186.78 63.7077 186.78C65.3677 186.78 65.9277 186.16 65.9277 185.38C65.9277 184.46 65.1877 184.08 63.2277 183.8C60.5077 183.42 59.2077 182.64 59.2077 180.8C59.2077 179.18 60.5477 177.96 63.1477 177.96ZM73.3442 175.84C73.3042 176.34 73.2842 177.24 73.2642 178.28C75.0042 178.28 76.7842 178.26 77.3442 178.22C77.3242 178.8 77.3642 179.44 77.3842 180C76.8042 179.96 74.9842 179.94 73.2242 179.94C73.2042 181.7 73.2042 183.44 73.2042 184.16C73.2042 185.74 73.7242 186.44 75.0642 186.44C75.8642 186.44 76.3842 186.14 76.9642 185.8C77.1642 186.3 77.5042 186.92 77.7642 187.4C76.8642 187.96 75.9442 188.2 74.9042 188.2C72.3642 188.2 71.3642 186.96 71.3642 184.52C71.3642 183.36 71.4042 181.66 71.4242 179.96C70.5442 179.96 69.8242 179.98 69.5442 180C69.5642 179.42 69.5642 178.8 69.5042 178.22C69.8042 178.26 70.5242 178.26 71.4442 178.28C71.4442 177.38 71.4442 176.54 71.4242 175.84C72.1842 175.86 72.7242 175.86 73.3442 175.84ZM87.6527 178.24C88.1727 178.26 89.3327 178.26 89.8927 178.24C88.4527 181.38 86.8327 185.18 85.9127 187.06C84.4327 190.14 83.5527 191.98 80.6727 191.98C79.6727 191.98 78.6727 191.82 78.1327 191.56C78.1527 191.26 78.5127 189.96 78.5327 189.7C79.0727 190.04 79.7727 190.18 80.6127 190.18C82.0927 190.18 82.7927 189.36 83.4527 188.22C81.8527 184.68 79.6127 179.96 78.7727 178.24C79.3527 178.26 80.4127 178.26 80.9927 178.24C81.3727 179.5 83.2327 183.56 84.4127 186.32H84.6927C85.6527 183.74 86.9327 180.62 87.6527 178.24ZM91.6528 174.5H93.6528C93.5928 177.62 93.5328 184.38 93.5728 188H91.6328C91.7128 184.78 91.7528 177.78 91.6528 174.5ZM100.915 179.5C98.9552 179.5 97.7952 180.48 97.5952 182.5C99.1152 182.5 101.655 182.52 103.775 182.46C103.815 180.62 102.755 179.5 100.915 179.5ZM105.535 185.78C104.855 187.18 103.375 188.22 101.015 188.22C97.3152 188.22 95.7352 186.14 95.7352 183.14C95.7352 180.12 97.4152 178.02 100.915 178.02C103.675 178.02 105.615 179.44 105.615 182.5C105.615 182.8 105.555 183.28 105.495 183.7C103.195 183.66 99.5952 183.62 97.5952 183.68C97.7552 185.68 98.8952 186.66 101.035 186.66C102.875 186.66 103.735 185.8 104.135 184.94C104.435 185.16 105.175 185.6 105.535 185.78ZM107.163 183.42V181.86H112.003V183.42H107.163ZM117.329 175.84C117.289 176.34 117.269 177.24 117.249 178.28C118.989 178.28 120.769 178.26 121.329 178.22C121.309 178.8 121.349 179.44 121.369 180C120.789 179.96 118.969 179.94 117.209 179.94C117.189 181.7 117.189 183.44 117.189 184.16C117.189 185.74 117.709 186.44 119.049 186.44C119.849 186.44 120.369 186.14 120.949 185.8C121.149 186.3 121.489 186.92 121.749 187.4C120.849 187.96 119.929 188.2 118.889 188.2C116.349 188.2 115.349 186.96 115.349 184.52C115.349 183.36 115.389 181.66 115.409 179.96C114.529 179.96 113.809 179.98 113.529 180C113.549 179.42 113.549 178.8 113.489 178.22C113.789 178.26 114.509 178.26 115.429 178.28C115.429 177.38 115.429 176.54 115.409 175.84C116.169 175.86 116.709 175.86 117.329 175.84ZM131.637 178.24C132.157 178.26 133.317 178.26 133.877 178.24C132.437 181.38 130.817 185.18 129.897 187.06C128.417 190.14 127.537 191.98 124.657 191.98C123.657 191.98 122.657 191.82 122.117 191.56C122.137 191.26 122.497 189.96 122.517 189.7C123.057 190.04 123.757 190.18 124.597 190.18C126.077 190.18 126.777 189.36 127.437 188.22C125.837 184.68 123.597 179.96 122.757 178.24C123.337 178.26 124.397 178.26 124.977 178.24C125.357 179.5 127.217 183.56 128.397 186.32H128.677C129.637 183.74 130.917 180.62 131.637 178.24ZM137.557 183.94C137.557 185.84 138.817 186.64 140.877 186.64C142.977 186.64 143.817 185.34 143.817 183.04C143.817 181.16 143.137 179.66 141.017 179.66C138.917 179.66 137.557 181.32 137.557 183.94ZM135.617 178.22H137.577C137.557 178.54 137.537 179.56 137.517 180.9H137.617C138.297 179.14 139.557 178.02 141.557 178.02C144.397 178.02 145.657 179.96 145.657 183.02C145.657 186.5 144.057 188.16 141.337 188.16C139.537 188.16 138.317 187.5 137.657 186.44L137.557 186.48C137.557 188.24 137.597 190.8 137.637 191.8C136.837 191.78 136.337 191.76 135.597 191.82C135.797 186.12 135.797 181.58 135.617 178.22ZM152.263 179.5C150.303 179.5 149.143 180.48 148.943 182.5C150.463 182.5 153.003 182.52 155.123 182.46C155.163 180.62 154.103 179.5 152.263 179.5ZM156.883 185.78C156.203 187.18 154.723 188.22 152.363 188.22C148.663 188.22 147.083 186.14 147.083 183.14C147.083 180.12 148.763 178.02 152.263 178.02C155.023 178.02 156.963 179.44 156.963 182.5C156.963 182.8 156.903 183.28 156.843 183.7C154.543 183.66 150.943 183.62 148.943 183.68C149.103 185.68 150.243 186.66 152.383 186.66C154.223 186.66 155.083 185.8 155.483 184.94C155.783 185.16 156.523 185.6 156.883 185.78ZM179.212 188C178.572 187.96 177.912 187.96 177.232 188C177.292 186.44 177.332 183.62 177.332 182.48C177.332 180.44 176.612 179.64 175.132 179.64C173.512 179.64 172.052 181.28 172.032 183.52C172.032 184.66 171.992 186.26 172.052 188C171.412 187.98 170.672 187.96 170.032 188C170.132 186.1 170.172 181.66 170.052 178.22C170.312 178.24 171.632 178.24 171.972 178.22C171.972 178.7 171.932 179.66 171.952 181.12H172.052C172.692 178.9 174.132 178 175.712 178C178.192 178 179.232 179.56 179.232 182.1C179.232 183.48 179.152 185.16 179.212 188ZM191.821 183.14C191.821 186.14 190.141 188.22 186.581 188.22C183.021 188.22 181.321 186.14 181.321 183.14C181.321 180.1 183.021 178 186.581 178C190.141 178 191.821 180.1 191.821 183.14ZM189.921 183.12C189.921 180.76 188.661 179.56 186.581 179.56C184.481 179.56 183.241 180.76 183.241 183.12C183.241 185.46 184.481 186.66 186.581 186.66C188.661 186.66 189.921 185.46 189.921 183.12ZM203.255 188C202.615 187.96 201.955 187.96 201.275 188C201.335 186.44 201.375 183.62 201.375 182.48C201.375 180.44 200.655 179.64 199.175 179.64C197.555 179.64 196.095 181.28 196.075 183.52C196.075 184.66 196.035 186.26 196.095 188C195.455 187.98 194.715 187.96 194.075 188C194.175 186.1 194.215 181.66 194.095 178.22C194.355 178.24 195.675 178.24 196.015 178.22C196.015 178.7 195.975 179.66 195.995 181.12H196.095C196.735 178.9 198.175 178 199.755 178C202.235 178 203.275 179.56 203.275 182.1C203.275 183.48 203.195 185.16 203.255 188ZM210.544 179.5C208.584 179.5 207.424 180.48 207.224 182.5C208.744 182.5 211.284 182.52 213.404 182.46C213.444 180.62 212.384 179.5 210.544 179.5ZM215.164 185.78C214.484 187.18 213.004 188.22 210.644 188.22C206.944 188.22 205.364 186.14 205.364 183.14C205.364 180.12 207.044 178.02 210.544 178.02C213.304 178.02 215.244 179.44 215.244 182.5C215.244 182.8 215.184 183.28 215.124 183.7C212.824 183.66 209.224 183.62 207.224 183.68C207.384 185.68 208.524 186.66 210.664 186.66C212.504 186.66 213.364 185.8 213.764 184.94C214.064 185.16 214.804 185.6 215.164 185.78ZM38.6188 217C37.9788 216.96 37.3188 216.96 36.6388 217C36.6988 215.44 36.7188 212.62 36.7188 211.48C36.7188 209.44 35.9988 208.64 34.5388 208.64C32.8988 208.64 31.4388 210.28 31.4388 212.52C31.4188 213.88 31.3988 215.24 31.4188 217C30.7988 216.96 30.1388 216.96 29.4588 217C29.5188 215.44 29.5588 212.62 29.5588 211.48C29.5588 209.44 28.8388 208.64 27.3588 208.64C25.7388 208.64 24.2788 210.28 24.2588 212.52C24.2588 213.66 24.2188 215.26 24.2988 217C23.6388 216.98 22.8988 216.96 22.2788 217C22.3588 215.1 22.3988 210.66 22.2788 207.22C22.5388 207.24 23.8588 207.24 24.1988 207.22C24.1988 207.7 24.1588 208.66 24.1788 210.12H24.2788C24.9188 207.9 26.3588 207 27.9388 207C30.0588 207 31.0588 208.36 31.3188 210.1L31.4588 210.12C32.0988 207.9 33.5388 207 35.1188 207C37.5988 207 38.6388 208.56 38.6388 211.1C38.6388 212.48 38.5588 214.16 38.6188 217ZM44.9356 215.76C46.8156 215.76 47.8956 214.78 47.8956 212.76C46.9956 212.66 46.0956 212.64 45.3156 212.64C43.3156 212.64 42.7156 213.36 42.7156 214.22C42.7156 215.28 43.4556 215.76 44.9356 215.76ZM49.9756 217H48.0756C48.0156 216.1 47.9756 215.56 47.9356 215.12H47.8756C47.1556 216.6 45.7356 217.2 44.3756 217.2C41.8756 217.2 40.8556 215.94 40.8556 214.44C40.8556 212.74 42.0356 211.64 45.0556 211.64C45.9756 211.64 46.9956 211.68 47.9156 211.8C47.9156 211.48 47.9356 211.22 47.9356 211.02C47.9356 209.54 47.2756 208.58 45.5556 208.58C44.1156 208.58 43.3556 209.36 43.1356 210.58C42.5156 210.4 41.8956 210.28 41.2556 210.2C41.6756 208.46 42.9356 207.02 45.6156 207.02C48.2756 207.02 49.8156 208.44 49.8156 211C49.8156 212.06 49.8156 215.54 49.9756 217ZM58.808 207.12L58.468 209.12C58.148 209 57.728 208.94 57.328 208.94C55.988 208.94 54.728 210.4 54.728 212.66C54.728 213.78 54.688 215.32 54.748 217C54.088 216.98 53.348 216.96 52.728 217C52.808 215.1 52.848 210.66 52.728 207.22C52.988 207.24 54.248 207.24 54.588 207.22C54.608 207.74 54.528 208.92 54.528 210.56H54.628C55.148 208.08 56.048 207 57.748 207C58.148 207 58.488 207.04 58.808 207.12ZM69.8223 218.62C69.8223 220.68 68.3023 221.52 64.5423 221.52C60.4223 221.52 59.2223 220.68 59.2223 219.02C59.2223 217.74 60.2023 217.04 61.6623 216.84V216.7C60.6623 216.44 60.2223 215.98 60.2223 215.32C60.2223 214.56 60.7623 213.98 62.1423 213.68V213.52C60.5423 213.08 59.8223 211.98 59.8223 210.56C59.8223 208.56 61.2623 207.06 64.5023 207.06C66.3423 207.06 67.9223 207.28 70.1023 207.24C70.0823 207.74 70.0823 208.3 70.1023 208.84C69.4023 208.68 68.3423 208.42 67.3223 208.24L67.2823 208.4C68.3823 208.9 69.0023 209.78 68.9823 211.12C69.0023 212.84 67.6423 214.16 64.4823 214.16C62.3423 214.16 61.7823 214.52 61.7823 215.1C61.7823 215.66 62.3623 215.82 64.8023 215.86C68.6223 215.94 69.8223 216.64 69.8223 218.62ZM68.1023 218.68C68.1023 217.64 67.2623 217.24 64.5623 217.24C61.9223 217.24 61.0223 217.66 61.0223 218.74C61.0223 219.72 62.1423 220.16 64.5623 220.16C67.0023 220.16 68.1023 219.68 68.1023 218.68ZM67.1623 210.72C67.1623 209.26 66.1623 208.56 64.4623 208.56C62.6823 208.56 61.6423 209.26 61.6423 210.72C61.6423 212.08 62.6823 212.76 64.4623 212.76C66.1623 212.76 67.1623 212.08 67.1623 210.72ZM72.2778 207.22C72.5778 207.24 74.0178 207.24 74.3178 207.22C74.2978 207.96 74.1778 213.78 74.2578 217H72.2778C72.4178 214.38 72.3978 210.02 72.2778 207.22ZM74.7378 203.76C74.7378 204.5 74.2978 205.04 73.3578 205.04C72.3578 205.04 71.9578 204.5 71.9578 203.76C71.9578 203.12 72.4178 202.5 73.3578 202.5C74.2578 202.5 74.7378 203.12 74.7378 203.76ZM86.6341 217C85.9941 216.96 85.3341 216.96 84.6541 217C84.7141 215.44 84.7541 212.62 84.7541 211.48C84.7541 209.44 84.0341 208.64 82.5541 208.64C80.9341 208.64 79.4741 210.28 79.4541 212.52C79.4541 213.66 79.4141 215.26 79.4741 217C78.8341 216.98 78.0941 216.96 77.4541 217C77.5541 215.1 77.5941 210.66 77.4741 207.22C77.7341 207.24 79.0541 207.24 79.3941 207.22C79.3941 207.7 79.3541 208.66 79.3741 210.12H79.4741C80.1141 207.9 81.5541 207 83.1341 207C85.6141 207 86.6541 208.56 86.6541 211.1C86.6541 212.48 86.5741 214.16 86.6341 217ZM99.8442 210.7C99.8442 206.98 101.744 204.14 105.784 204.14C109.824 204.14 111.704 206.98 111.704 210.72C111.704 214.44 109.784 217.3 105.784 217.3C101.784 217.3 99.8442 214.44 99.8442 210.7ZM109.724 210.72C109.724 207.66 108.244 205.92 105.784 205.92C103.324 205.92 101.824 207.66 101.824 210.72C101.824 213.8 103.324 215.52 105.784 215.52C108.244 215.52 109.724 213.8 109.724 210.72ZM24.1588 241.94C24.1588 243.84 25.4188 244.64 27.4788 244.64C29.5788 244.64 30.4188 243.34 30.4188 241.04C30.4188 239.16 29.7388 237.66 27.6188 237.66C25.5188 237.66 24.1588 239.32 24.1588 241.94ZM22.2188 236.22H24.1788C24.1588 236.54 24.1388 237.56 24.1188 238.9H24.2188C24.8988 237.14 26.1588 236.02 28.1588 236.02C30.9987 236.02 32.2588 237.96 32.2588 241.02C32.2588 244.5 30.6588 246.16 27.9388 246.16C26.1388 246.16 24.9188 245.5 24.2588 244.44L24.1588 244.48C24.1588 246.24 24.1988 248.8 24.2388 249.8C23.4388 249.78 22.9388 249.76 22.1988 249.82C22.3988 244.12 22.3988 239.58 22.2188 236.22ZM37.9044 244.76C39.7844 244.76 40.8644 243.78 40.8644 241.76C39.9644 241.66 39.0644 241.64 38.2844 241.64C36.2844 241.64 35.6844 242.36 35.6844 243.22C35.6844 244.28 36.4244 244.76 37.9044 244.76ZM42.9444 246H41.0444C40.9844 245.1 40.9444 244.56 40.9044 244.12H40.8444C40.1244 245.6 38.7044 246.2 37.3444 246.2C34.8444 246.2 33.8244 244.94 33.8244 243.44C33.8244 241.74 35.0044 240.64 38.0244 240.64C38.9444 240.64 39.9644 240.68 40.8844 240.8C40.8844 240.48 40.9044 240.22 40.9044 240.02C40.9044 238.54 40.2444 237.58 38.5244 237.58C37.0844 237.58 36.3244 238.36 36.1044 239.58C35.4844 239.4 34.8644 239.28 34.2244 239.2C34.6444 237.46 35.9044 236.02 38.5844 236.02C41.2444 236.02 42.7844 237.44 42.7844 240C42.7844 241.06 42.7844 244.54 42.9444 246ZM52.9367 240.3C52.9367 238.4 51.6967 237.6 49.6367 237.6C47.5367 237.6 46.6767 238.9 46.6767 241.2C46.6767 243.08 47.3767 244.58 49.4967 244.58C51.5967 244.58 52.9367 242.92 52.9367 240.3ZM54.8767 246H52.9367C52.9567 245.68 52.9767 244.66 52.9967 243.34H52.8967C52.2167 245.1 50.9567 246.22 48.9567 246.22C46.1167 246.22 44.8367 244.28 44.8367 241.22C44.8367 237.74 46.4567 236.08 49.1567 236.08C50.9567 236.08 52.1767 236.74 52.8367 237.78L52.9567 237.74C52.9567 235.96 52.9167 233.38 52.9367 232.38C53.6767 232.42 54.1567 232.42 54.8967 232.36C54.6967 238.08 54.6967 242.64 54.8767 246ZM65.0852 240.3C65.0852 238.4 63.8452 237.6 61.7852 237.6C59.6852 237.6 58.8252 238.9 58.8252 241.2C58.8252 243.08 59.5252 244.58 61.6452 244.58C63.7452 244.58 65.0852 242.92 65.0852 240.3ZM67.0252 246H65.0852C65.1052 245.68 65.1252 244.66 65.1452 243.34H65.0452C64.3652 245.1 63.1052 246.22 61.1052 246.22C58.2652 246.22 56.9852 244.28 56.9852 241.22C56.9852 237.74 58.6052 236.08 61.3052 236.08C63.1052 236.08 64.3252 236.74 64.9852 237.78L65.1052 237.74C65.1052 235.96 65.0652 233.38 65.0852 232.38C65.8252 232.42 66.3052 232.42 67.0452 232.36C66.8452 238.08 66.8452 242.64 67.0252 246ZM69.9536 236.22C70.2536 236.24 71.6936 236.24 71.9936 236.22C71.9736 236.96 71.8536 242.78 71.9336 246H69.9536C70.0936 243.38 70.0736 239.02 69.9536 236.22ZM72.4136 232.76C72.4136 233.5 71.9736 234.04 71.0336 234.04C70.0336 234.04 69.6336 233.5 69.6336 232.76C69.6336 232.12 70.0936 231.5 71.0336 231.5C71.9336 231.5 72.4136 232.12 72.4136 232.76ZM84.3098 246C83.6698 245.96 83.0098 245.96 82.3298 246C82.3898 244.44 82.4298 241.62 82.4298 240.48C82.4298 238.44 81.7098 237.64 80.2298 237.64C78.6098 237.64 77.1498 239.28 77.1298 241.52C77.1298 242.66 77.0898 244.26 77.1498 246C76.5098 245.98 75.7698 245.96 75.1298 246C75.2298 244.1 75.2698 239.66 75.1498 236.22C75.4098 236.24 76.7298 236.24 77.0698 236.22C77.0698 236.7 77.0298 237.66 77.0498 239.12H77.1498C77.7898 236.9 79.2298 236 80.8098 236C83.2898 236 84.3298 237.56 84.3298 240.1C84.3298 241.48 84.2498 243.16 84.3098 246ZM96.6388 247.62C96.6388 249.68 95.1188 250.52 91.3588 250.52C87.2388 250.52 86.0388 249.68 86.0388 248.02C86.0388 246.74 87.0188 246.04 88.4788 245.84V245.7C87.4788 245.44 87.0387 244.98 87.0387 244.32C87.0387 243.56 87.5788 242.98 88.9588 242.68V242.52C87.3588 242.08 86.6388 240.98 86.6388 239.56C86.6388 237.56 88.0788 236.06 91.3188 236.06C93.1588 236.06 94.7388 236.28 96.9188 236.24C96.8988 236.74 96.8988 237.3 96.9188 237.84C96.2188 237.68 95.1588 237.42 94.1388 237.24L94.0988 237.4C95.1988 237.9 95.8187 238.78 95.7988 240.12C95.8187 241.84 94.4588 243.16 91.2988 243.16C89.1588 243.16 88.5988 243.52 88.5988 244.1C88.5988 244.66 89.1788 244.82 91.6188 244.86C95.4388 244.94 96.6388 245.64 96.6388 247.62ZM94.9188 247.68C94.9188 246.64 94.0788 246.24 91.3788 246.24C88.7388 246.24 87.8388 246.66 87.8388 247.74C87.8388 248.72 88.9588 249.16 91.3788 249.16C93.8188 249.16 94.9188 248.68 94.9188 247.68ZM93.9788 239.72C93.9788 238.26 92.9788 237.56 91.2788 237.56C89.4988 237.56 88.4588 238.26 88.4588 239.72C88.4588 241.08 89.4988 241.76 91.2788 241.76C92.9788 241.76 93.9788 241.08 93.9788 239.72ZM109.375 239.7C109.375 235.98 111.275 233.14 115.315 233.14C119.355 233.14 121.235 235.98 121.235 239.72C121.235 243.44 119.315 246.3 115.315 246.3C111.315 246.3 109.375 243.44 109.375 239.7ZM119.255 239.72C119.255 236.66 117.775 234.92 115.315 234.92C112.855 234.92 111.355 236.66 111.355 239.72C111.355 242.8 112.855 244.52 115.315 244.52C117.775 244.52 119.255 242.8 119.255 239.72Z" fill="white"/>
<path d="M14.3794 41.5C14.3794 42.46 13.7594 43.2 12.6194 43.2C11.3794 43.2 10.8394 42.46 10.8394 41.5C10.8394 40.56 11.4794 39.78 12.6194 39.78C13.7594 39.78 14.3794 40.56 14.3794 41.5ZM18.8072 38.94C18.8072 40.84 20.0672 41.64 22.1272 41.64C24.2272 41.64 25.0672 40.34 25.0672 38.04C25.0672 36.16 24.3872 34.66 22.2672 34.66C20.1672 34.66 18.8072 36.32 18.8072 38.94ZM16.8672 29.5H18.8872C18.8672 30.22 18.7872 32.84 18.7872 35.9H18.8672C19.5472 34.14 20.8072 33.02 22.8072 33.02C25.6472 33.02 26.9072 34.96 26.9072 38.02C26.9072 41.5 25.3072 43.16 22.5872 43.16C20.7872 43.16 19.5872 42.5 18.9072 41.44L18.8072 41.48C18.8272 42.08 18.8272 42.7 18.8272 43C18.0872 42.96 17.5872 42.96 16.8472 43.02C17.0472 37.36 17.0472 32.84 16.8672 29.5ZM35.2728 33.12L34.9328 35.12C34.6128 35 34.1928 34.94 33.7928 34.94C32.4528 34.94 31.1928 36.4 31.1928 38.66C31.1928 39.78 31.1528 41.32 31.2128 43C30.5528 42.98 29.8128 42.96 29.1928 43C29.2728 41.1 29.3128 36.66 29.1928 33.22C29.4528 33.24 30.7128 33.24 31.0528 33.22C31.0728 33.74 30.9928 34.92 30.9928 36.56H31.0928C31.6128 34.08 32.5128 33 34.2128 33C34.6128 33 34.9528 33.04 35.2728 33.12ZM41.2472 34.5C39.2872 34.5 38.1272 35.48 37.9272 37.5C39.4472 37.5 41.9872 37.52 44.1072 37.46C44.1472 35.62 43.0872 34.5 41.2472 34.5ZM45.8672 40.78C45.1872 42.18 43.7072 43.22 41.3472 43.22C37.6472 43.22 36.0672 41.14 36.0672 38.14C36.0672 35.12 37.7472 33.02 41.2472 33.02C44.0072 33.02 45.9472 34.44 45.9472 37.5C45.9472 37.8 45.8872 38.28 45.8272 38.7C43.5272 38.66 39.9272 38.62 37.9272 38.68C38.0872 40.68 39.2272 41.66 41.3672 41.66C43.2072 41.66 44.0672 40.8 44.4672 39.94C44.7672 40.16 45.5072 40.6 45.8672 40.78ZM51.6153 41.76C53.4953 41.76 54.5753 40.78 54.5753 38.76C53.6753 38.66 52.7753 38.64 51.9953 38.64C49.9953 38.64 49.3953 39.36 49.3953 40.22C49.3953 41.28 50.1353 41.76 51.6153 41.76ZM56.6553 43H54.7553C54.6953 42.1 54.6553 41.56 54.6153 41.12H54.5553C53.8353 42.6 52.4153 43.2 51.0553 43.2C48.5553 43.2 47.5353 41.94 47.5353 40.44C47.5353 38.74 48.7153 37.64 51.7353 37.64C52.6553 37.64 53.6753 37.68 54.5953 37.8C54.5953 37.48 54.6153 37.22 54.6153 37.02C54.6153 35.54 53.9553 34.58 52.2353 34.58C50.7953 34.58 50.0353 35.36 49.8153 36.58C49.1953 36.4 48.5753 36.28 47.9353 36.2C48.3553 34.46 49.6153 33.02 52.2953 33.02C54.9553 33.02 56.4953 34.44 56.4953 37C56.4953 38.06 56.4953 41.54 56.6553 43ZM66.6477 37.3C66.6477 35.4 65.4077 34.6 63.3477 34.6C61.2477 34.6 60.3877 35.9 60.3877 38.2C60.3877 40.08 61.0877 41.58 63.2077 41.58C65.3077 41.58 66.6477 39.92 66.6477 37.3ZM68.5877 43H66.6477C66.6677 42.68 66.6877 41.66 66.7077 40.34H66.6077C65.9277 42.1 64.6677 43.22 62.6677 43.22C59.8277 43.22 58.5477 41.28 58.5477 38.22C58.5477 34.74 60.1677 33.08 62.8677 33.08C64.6677 33.08 65.8877 33.74 66.5477 34.78L66.6677 34.74C66.6677 32.96 66.6277 30.38 66.6477 29.38C67.3877 29.42 67.8677 29.42 68.6077 29.36C68.4077 35.08 68.4077 39.64 68.5877 43ZM80.4761 36.52C80.0561 36.6 79.1161 36.72 78.7561 36.84C78.3961 35.36 77.3161 34.6 75.8361 34.6C73.7361 34.6 72.5561 35.74 72.5561 38.12C72.5561 40.46 73.7761 41.64 75.9161 41.64C77.7361 41.64 78.6161 40.48 78.8761 39.7C79.1761 39.86 80.2161 40.1 80.6361 40.24C80.0961 41.74 78.6361 43.24 75.9161 43.24C72.2761 43.24 70.6961 41.14 70.6961 38.12C70.6961 35.1 72.3961 33 75.8561 33C78.4161 33 79.9961 34.4 80.4761 36.52ZM88.9447 33.12L88.6047 35.12C88.2847 35 87.8647 34.94 87.4647 34.94C86.1247 34.94 84.8647 36.4 84.8647 38.66C84.8647 39.78 84.8247 41.32 84.8847 43C84.2247 42.98 83.4847 42.96 82.8647 43C82.9447 41.1 82.9847 36.66 82.8647 33.22C83.1247 33.24 84.3847 33.24 84.7247 33.22C84.7447 33.74 84.6647 34.92 84.6647 36.56H84.7647C85.2847 34.08 86.1847 33 87.8847 33C88.2847 33 88.6247 33.04 88.9447 33.12ZM90.5591 33.22C91.1991 33.26 91.8591 33.26 92.5391 33.22C92.4591 34.78 92.4191 37.6 92.4191 38.76C92.4191 40.78 93.1391 41.58 94.6191 41.58C96.2391 41.58 97.6991 39.94 97.7191 37.7C97.7191 36.56 97.7591 34.96 97.6791 33.22C98.3391 33.26 99.0791 33.26 99.7591 33.22C99.6191 35.12 99.5791 39.58 99.6991 43H97.7791C97.7791 42.54 97.8191 41.56 97.7991 40.1H97.6991C97.0591 42.34 95.6191 43.24 94.0391 43.24C91.5591 43.24 90.5191 41.68 90.5191 39.12C90.5191 37.74 90.5791 36.06 90.5591 33.22ZM119.068 43C118.428 42.96 117.768 42.96 117.088 43C117.148 41.44 117.168 38.62 117.168 37.48C117.168 35.44 116.448 34.64 114.988 34.64C113.348 34.64 111.888 36.28 111.888 38.52C111.868 39.88 111.848 41.24 111.868 43C111.248 42.96 110.588 42.96 109.908 43C109.968 41.44 110.008 38.62 110.008 37.48C110.008 35.44 109.288 34.64 107.808 34.64C106.188 34.64 104.728 36.28 104.708 38.52C104.708 39.66 104.668 41.26 104.748 43C104.088 42.98 103.348 42.96 102.728 43C102.808 41.1 102.848 36.66 102.728 33.22C102.988 33.24 104.308 33.24 104.648 33.22C104.648 33.7 104.608 34.66 104.628 36.12H104.728C105.368 33.9 106.808 33 108.388 33C110.508 33 111.508 34.36 111.768 36.1L111.908 36.12C112.548 33.9 113.988 33 115.568 33C118.048 33 119.088 34.56 119.088 37.1C119.088 38.48 119.008 40.16 119.068 43ZM123.905 38.94C123.905 40.84 125.165 41.64 127.225 41.64C129.325 41.64 130.165 40.34 130.165 38.04C130.165 36.16 129.485 34.66 127.365 34.66C125.265 34.66 123.905 36.32 123.905 38.94ZM121.965 29.5H123.985C123.965 30.22 123.885 32.84 123.885 35.9H123.965C124.645 34.14 125.905 33.02 127.905 33.02C130.745 33.02 132.005 34.96 132.005 38.02C132.005 41.5 130.405 43.16 127.685 43.16C125.885 43.16 124.685 42.5 124.005 41.44L123.905 41.48C123.925 42.08 123.925 42.7 123.925 43C123.185 42.96 122.685 42.96 121.945 43.02C122.145 37.36 122.145 32.84 121.965 29.5ZM138.03 32.96C140.35 32.96 141.55 33.74 142.45 35.28C142.27 35.34 141.09 35.98 140.99 36.04C140.47 35.04 139.53 34.48 137.93 34.48C136.39 34.48 135.79 35.08 135.83 35.86C135.87 36.82 136.75 37.1 138.47 37.3C141.25 37.62 142.59 38.5 142.59 40.3C142.59 42.18 141.13 43.3 138.55 43.3C135.91 43.3 134.15 42.44 133.27 40.44C133.47 40.36 134.63 39.78 134.81 39.66C135.33 41.02 136.67 41.78 138.59 41.78C140.25 41.78 140.81 41.16 140.81 40.38C140.81 39.46 140.07 39.08 138.11 38.8C135.39 38.42 134.09 37.64 134.09 35.8C134.09 34.18 135.43 32.96 138.03 32.96ZM14.3794 157.5C14.3794 158.46 13.7594 159.2 12.6194 159.2C11.3794 159.2 10.8394 158.46 10.8394 157.5C10.8394 156.56 11.4794 155.78 12.6194 155.78C13.7594 155.78 14.3794 156.56 14.3794 157.5ZM18.8072 154.94C18.8072 156.84 20.0672 157.64 22.1272 157.64C24.2272 157.64 25.0672 156.34 25.0672 154.04C25.0672 152.16 24.3872 150.66 22.2672 150.66C20.1672 150.66 18.8072 152.32 18.8072 154.94ZM16.8672 145.5H18.8872C18.8672 146.22 18.7872 148.84 18.7872 151.9H18.8672C19.5472 150.14 20.8072 149.02 22.8072 149.02C25.6472 149.02 26.9072 150.96 26.9072 154.02C26.9072 157.5 25.3072 159.16 22.5872 159.16C20.7872 159.16 19.5872 158.5 18.9072 157.44L18.8072 157.48C18.8272 158.08 18.8272 158.7 18.8272 159C18.0872 158.96 17.5872 158.96 16.8472 159.02C17.0472 153.36 17.0472 148.84 16.8672 145.5ZM35.2728 149.12L34.9328 151.12C34.6128 151 34.1928 150.94 33.7928 150.94C32.4528 150.94 31.1928 152.4 31.1928 154.66C31.1928 155.78 31.1528 157.32 31.2128 159C30.5528 158.98 29.8128 158.96 29.1928 159C29.2728 157.1 29.3128 152.66 29.1928 149.22C29.4528 149.24 30.7128 149.24 31.0528 149.22C31.0728 149.74 30.9928 150.92 30.9928 152.56H31.0928C31.6128 150.08 32.5128 149 34.2128 149C34.6128 149 34.9528 149.04 35.2728 149.12ZM41.2472 150.5C39.2872 150.5 38.1272 151.48 37.9272 153.5C39.4472 153.5 41.9872 153.52 44.1072 153.46C44.1472 151.62 43.0872 150.5 41.2472 150.5ZM45.8672 156.78C45.1872 158.18 43.7072 159.22 41.3472 159.22C37.6472 159.22 36.0672 157.14 36.0672 154.14C36.0672 151.12 37.7472 149.02 41.2472 149.02C44.0072 149.02 45.9472 150.44 45.9472 153.5C45.9472 153.8 45.8872 154.28 45.8272 154.7C43.5272 154.66 39.9272 154.62 37.9272 154.68C38.0872 156.68 39.2272 157.66 41.3672 157.66C43.2072 157.66 44.0672 156.8 44.4672 155.94C44.7672 156.16 45.5072 156.6 45.8672 156.78ZM51.6153 157.76C53.4953 157.76 54.5753 156.78 54.5753 154.76C53.6753 154.66 52.7753 154.64 51.9953 154.64C49.9953 154.64 49.3953 155.36 49.3953 156.22C49.3953 157.28 50.1353 157.76 51.6153 157.76ZM56.6553 159H54.7553C54.6953 158.1 54.6553 157.56 54.6153 157.12H54.5553C53.8353 158.6 52.4153 159.2 51.0553 159.2C48.5553 159.2 47.5353 157.94 47.5353 156.44C47.5353 154.74 48.7153 153.64 51.7353 153.64C52.6553 153.64 53.6753 153.68 54.5953 153.8C54.5953 153.48 54.6153 153.22 54.6153 153.02C54.6153 151.54 53.9553 150.58 52.2353 150.58C50.7953 150.58 50.0353 151.36 49.8153 152.58C49.1953 152.4 48.5753 152.28 47.9353 152.2C48.3553 150.46 49.6153 149.02 52.2953 149.02C54.9553 149.02 56.4953 150.44 56.4953 153C56.4953 154.06 56.4953 157.54 56.6553 159ZM66.6477 153.3C66.6477 151.4 65.4077 150.6 63.3477 150.6C61.2477 150.6 60.3877 151.9 60.3877 154.2C60.3877 156.08 61.0877 157.58 63.2077 157.58C65.3077 157.58 66.6477 155.92 66.6477 153.3ZM68.5877 159H66.6477C66.6677 158.68 66.6877 157.66 66.7077 156.34H66.6077C65.9277 158.1 64.6677 159.22 62.6677 159.22C59.8277 159.22 58.5477 157.28 58.5477 154.22C58.5477 150.74 60.1677 149.08 62.8677 149.08C64.6677 149.08 65.8877 149.74 66.5477 150.78L66.6677 150.74C66.6677 148.96 66.6277 146.38 66.6477 145.38C67.3877 145.42 67.8677 145.42 68.6077 145.36C68.4077 151.08 68.4077 155.64 68.5877 159ZM80.4761 152.52C80.0561 152.6 79.1161 152.72 78.7561 152.84C78.3961 151.36 77.3161 150.6 75.8361 150.6C73.7361 150.6 72.5561 151.74 72.5561 154.12C72.5561 156.46 73.7761 157.64 75.9161 157.64C77.7361 157.64 78.6161 156.48 78.8761 155.7C79.1761 155.86 80.2161 156.1 80.6361 156.24C80.0961 157.74 78.6361 159.24 75.9161 159.24C72.2761 159.24 70.6961 157.14 70.6961 154.12C70.6961 151.1 72.3961 149 75.8561 149C78.4161 149 79.9961 150.4 80.4761 152.52ZM88.9447 149.12L88.6047 151.12C88.2847 151 87.8647 150.94 87.4647 150.94C86.1247 150.94 84.8647 152.4 84.8647 154.66C84.8647 155.78 84.8247 157.32 84.8847 159C84.2247 158.98 83.4847 158.96 82.8647 159C82.9447 157.1 82.9847 152.66 82.8647 149.22C83.1247 149.24 84.3847 149.24 84.7247 149.22C84.7447 149.74 84.6647 150.92 84.6647 152.56H84.7647C85.2847 150.08 86.1847 149 87.8847 149C88.2847 149 88.6247 149.04 88.9447 149.12ZM90.5591 149.22C91.1991 149.26 91.8591 149.26 92.5391 149.22C92.4591 150.78 92.4191 153.6 92.4191 154.76C92.4191 156.78 93.1391 157.58 94.6191 157.58C96.2391 157.58 97.6991 155.94 97.7191 153.7C97.7191 152.56 97.7591 150.96 97.6791 149.22C98.3391 149.26 99.0791 149.26 99.7591 149.22C99.6191 151.12 99.5791 155.58 99.6991 159H97.7791C97.7791 158.54 97.8191 157.56 97.7991 156.1H97.6991C97.0591 158.34 95.6191 159.24 94.0391 159.24C91.5591 159.24 90.5191 157.68 90.5191 155.12C90.5191 153.74 90.5791 152.06 90.5591 149.22ZM119.068 159C118.428 158.96 117.768 158.96 117.088 159C117.148 157.44 117.168 154.62 117.168 153.48C117.168 151.44 116.448 150.64 114.988 150.64C113.348 150.64 111.888 152.28 111.888 154.52C111.868 155.88 111.848 157.24 111.868 159C111.248 158.96 110.588 158.96 109.908 159C109.968 157.44 110.008 154.62 110.008 153.48C110.008 151.44 109.288 150.64 107.808 150.64C106.188 150.64 104.728 152.28 104.708 154.52C104.708 155.66 104.668 157.26 104.748 159C104.088 158.98 103.348 158.96 102.728 159C102.808 157.1 102.848 152.66 102.728 149.22C102.988 149.24 104.308 149.24 104.648 149.22C104.648 149.7 104.608 150.66 104.628 152.12H104.728C105.368 149.9 106.808 149 108.388 149C110.508 149 111.508 150.36 111.768 152.1L111.908 152.12C112.548 149.9 113.988 149 115.568 149C118.048 149 119.088 150.56 119.088 153.1C119.088 154.48 119.008 156.16 119.068 159ZM123.905 154.94C123.905 156.84 125.165 157.64 127.225 157.64C129.325 157.64 130.165 156.34 130.165 154.04C130.165 152.16 129.485 150.66 127.365 150.66C125.265 150.66 123.905 152.32 123.905 154.94ZM121.965 145.5H123.985C123.965 146.22 123.885 148.84 123.885 151.9H123.965C124.645 150.14 125.905 149.02 127.905 149.02C130.745 149.02 132.005 150.96 132.005 154.02C132.005 157.5 130.405 159.16 127.685 159.16C125.885 159.16 124.685 158.5 124.005 157.44L123.905 157.48C123.925 158.08 123.925 158.7 123.925 159C123.185 158.96 122.685 158.96 121.945 159.02C122.145 153.36 122.145 148.84 121.965 145.5ZM138.03 148.96C140.35 148.96 141.55 149.74 142.45 151.28C142.27 151.34 141.09 151.98 140.99 152.04C140.47 151.04 139.53 150.48 137.93 150.48C136.39 150.48 135.79 151.08 135.83 151.86C135.87 152.82 136.75 153.1 138.47 153.3C141.25 153.62 142.59 154.5 142.59 156.3C142.59 158.18 141.13 159.3 138.55 159.3C135.91 159.3 134.15 158.44 133.27 156.44C133.47 156.36 134.63 155.78 134.81 155.66C135.33 157.02 136.67 157.78 138.59 157.78C140.25 157.78 140.81 157.16 140.81 156.38C140.81 155.46 140.07 155.08 138.11 154.8C135.39 154.42 134.09 153.64 134.09 151.8C134.09 150.18 135.43 148.96 138.03 148.96ZM152.627 162.08H143.667V160.8H152.627V162.08ZM161.514 162.08H152.554V160.8H161.514V162.08ZM163 145.5H165C164.94 148.62 164.88 155.38 164.92 159H162.98C163.06 155.78 163.1 148.78 163 145.5ZM167.903 149.22C168.203 149.24 169.643 149.24 169.943 149.22C169.923 149.96 169.803 155.78 169.883 159H167.903C168.043 156.38 168.023 152.02 167.903 149.22ZM170.363 145.76C170.363 146.5 169.923 147.04 168.983 147.04C167.983 147.04 167.583 146.5 167.583 145.76C167.583 145.12 168.043 144.5 168.983 144.5C169.883 144.5 170.363 145.12 170.363 145.76ZM176.839 148.96C179.159 148.96 180.359 149.74 181.259 151.28C181.079 151.34 179.899 151.98 179.799 152.04C179.279 151.04 178.339 150.48 176.739 150.48C175.199 150.48 174.599 151.08 174.639 151.86C174.679 152.82 175.559 153.1 177.279 153.3C180.059 153.62 181.399 154.5 181.399 156.3C181.399 158.18 179.939 159.3 177.359 159.3C174.719 159.3 172.959 158.44 172.079 156.44C172.279 156.36 173.439 155.78 173.619 155.66C174.139 157.02 175.479 157.78 177.399 157.78C179.059 157.78 179.619 157.16 179.619 156.38C179.619 155.46 178.879 155.08 176.919 154.8C174.199 154.42 172.899 153.64 172.899 151.8C172.899 150.18 174.239 148.96 176.839 148.96ZM187.036 146.84C186.996 147.34 186.976 148.24 186.956 149.28C188.696 149.28 190.476 149.26 191.036 149.22C191.016 149.8 191.056 150.44 191.076 151C190.496 150.96 188.676 150.94 186.916 150.94C186.896 152.7 186.896 154.44 186.896 155.16C186.896 156.74 187.416 157.44 188.756 157.44C189.556 157.44 190.076 157.14 190.656 156.8C190.856 157.3 191.196 157.92 191.456 158.4C190.556 158.96 189.636 159.2 188.596 159.2C186.056 159.2 185.056 157.96 185.056 155.52C185.056 154.36 185.096 152.66 185.116 150.96C184.236 150.96 183.516 150.98 183.236 151C183.256 150.42 183.256 149.8 183.196 149.22C183.496 149.26 184.216 149.26 185.136 149.28C185.136 148.38 185.136 147.54 185.116 146.84C185.876 146.86 186.416 146.86 187.036 146.84ZM8.94969 331.5C8.94969 332.46 8.32969 333.2 7.18969 333.2C5.94969 333.2 5.40969 332.46 5.40969 331.5C5.40969 330.56 6.04969 329.78 7.18969 329.78C8.32969 329.78 8.94969 330.56 8.94969 331.5ZM13.3775 328.94C13.3775 330.84 14.6375 331.64 16.6975 331.64C18.7975 331.64 19.6375 330.34 19.6375 328.04C19.6375 326.16 18.9575 324.66 16.8375 324.66C14.7375 324.66 13.3775 326.32 13.3775 328.94ZM11.4375 319.5H13.4575C13.4375 320.22 13.3575 322.84 13.3575 325.9H13.4375C14.1175 324.14 15.3775 323.02 17.3775 323.02C20.2175 323.02 21.4775 324.96 21.4775 328.02C21.4775 331.5 19.8775 333.16 17.1575 333.16C15.3575 333.16 14.1575 332.5 13.4775 331.44L13.3775 331.48C13.3975 332.08 13.3975 332.7 13.3975 333C12.6575 332.96 12.1575 332.96 11.4175 333.02C11.6175 327.36 11.6175 322.84 11.4375 319.5ZM29.8431 323.12L29.5031 325.12C29.1831 325 28.7631 324.94 28.3631 324.94C27.0231 324.94 25.7631 326.4 25.7631 328.66C25.7631 329.78 25.7231 331.32 25.7831 333C25.1231 332.98 24.3831 332.96 23.7631 333C23.8431 331.1 23.8831 326.66 23.7631 323.22C24.0231 323.24 25.2831 323.24 25.6231 323.22C25.6431 323.74 25.5631 324.92 25.5631 326.56H25.6631C26.1831 324.08 27.0831 323 28.7831 323C29.1831 323 29.5231 323.04 29.8431 323.12ZM35.8175 324.5C33.8575 324.5 32.6975 325.48 32.4975 327.5C34.0175 327.5 36.5575 327.52 38.6775 327.46C38.7175 325.62 37.6575 324.5 35.8175 324.5ZM40.4375 330.78C39.7575 332.18 38.2775 333.22 35.9175 333.22C32.2175 333.22 30.6375 331.14 30.6375 328.14C30.6375 325.12 32.3175 323.02 35.8175 323.02C38.5775 323.02 40.5175 324.44 40.5175 327.5C40.5175 327.8 40.4575 328.28 40.3975 328.7C38.0975 328.66 34.4975 328.62 32.4975 328.68C32.6575 330.68 33.7975 331.66 35.9375 331.66C37.7775 331.66 38.6375 330.8 39.0375 329.94C39.3375 330.16 40.0775 330.6 40.4375 330.78ZM46.1856 331.76C48.0656 331.76 49.1456 330.78 49.1456 328.76C48.2456 328.66 47.3456 328.64 46.5656 328.64C44.5656 328.64 43.9656 329.36 43.9656 330.22C43.9656 331.28 44.7056 331.76 46.1856 331.76ZM51.2256 333H49.3256C49.2656 332.1 49.2256 331.56 49.1856 331.12H49.1256C48.4056 332.6 46.9856 333.2 45.6256 333.2C43.1256 333.2 42.1056 331.94 42.1056 330.44C42.1056 328.74 43.2856 327.64 46.3056 327.64C47.2256 327.64 48.2456 327.68 49.1656 327.8C49.1656 327.48 49.1856 327.22 49.1856 327.02C49.1856 325.54 48.5256 324.58 46.8056 324.58C45.3656 324.58 44.6056 325.36 44.3856 326.58C43.7656 326.4 43.1456 326.28 42.5056 326.2C42.9256 324.46 44.1856 323.02 46.8656 323.02C49.5256 323.02 51.0656 324.44 51.0656 327C51.0656 328.06 51.0656 331.54 51.2256 333ZM61.218 327.3C61.218 325.4 59.978 324.6 57.918 324.6C55.818 324.6 54.958 325.9 54.958 328.2C54.958 330.08 55.658 331.58 57.778 331.58C59.878 331.58 61.218 329.92 61.218 327.3ZM63.158 333H61.218C61.238 332.68 61.258 331.66 61.278 330.34H61.178C60.498 332.1 59.238 333.22 57.238 333.22C54.398 333.22 53.118 331.28 53.118 328.22C53.118 324.74 54.738 323.08 57.438 323.08C59.238 323.08 60.458 323.74 61.118 324.78L61.238 324.74C61.238 322.96 61.198 320.38 61.218 319.38C61.958 319.42 62.438 319.42 63.178 319.36C62.978 325.08 62.978 329.64 63.158 333ZM75.0464 326.52C74.6264 326.6 73.6864 326.72 73.3264 326.84C72.9664 325.36 71.8864 324.6 70.4064 324.6C68.3064 324.6 67.1264 325.74 67.1264 328.12C67.1264 330.46 68.3464 331.64 70.4864 331.64C72.3064 331.64 73.1864 330.48 73.4464 329.7C73.7464 329.86 74.7864 330.1 75.2064 330.24C74.6664 331.74 73.2064 333.24 70.4864 333.24C66.8464 333.24 65.2664 331.14 65.2664 328.12C65.2664 325.1 66.9664 323 70.4264 323C72.9864 323 74.5664 324.4 75.0464 326.52ZM83.515 323.12L83.175 325.12C82.855 325 82.435 324.94 82.035 324.94C80.695 324.94 79.435 326.4 79.435 328.66C79.435 329.78 79.395 331.32 79.455 333C78.795 332.98 78.055 332.96 77.435 333C77.515 331.1 77.555 326.66 77.435 323.22C77.695 323.24 78.955 323.24 79.295 323.22C79.315 323.74 79.235 324.92 79.235 326.56H79.335C79.855 324.08 80.755 323 82.455 323C82.855 323 83.195 323.04 83.515 323.12ZM85.1294 323.22C85.7694 323.26 86.4294 323.26 87.1094 323.22C87.0294 324.78 86.9894 327.6 86.9894 328.76C86.9894 330.78 87.7094 331.58 89.1894 331.58C90.8094 331.58 92.2694 329.94 92.2894 327.7C92.2894 326.56 92.3294 324.96 92.2494 323.22C92.9094 323.26 93.6494 323.26 94.3294 323.22C94.1894 325.12 94.1494 329.58 94.2694 333H92.3494C92.3494 332.54 92.3894 331.56 92.3694 330.1H92.2694C91.6294 332.34 90.1894 333.24 88.6094 333.24C86.1294 333.24 85.0894 331.68 85.0894 329.12C85.0894 327.74 85.1494 326.06 85.1294 323.22ZM113.638 333C112.998 332.96 112.338 332.96 111.658 333C111.718 331.44 111.738 328.62 111.738 327.48C111.738 325.44 111.018 324.64 109.558 324.64C107.918 324.64 106.458 326.28 106.458 328.52C106.438 329.88 106.418 331.24 106.438 333C105.818 332.96 105.158 332.96 104.478 333C104.538 331.44 104.578 328.62 104.578 327.48C104.578 325.44 103.858 324.64 102.378 324.64C100.758 324.64 99.2983 326.28 99.2783 328.52C99.2783 329.66 99.2383 331.26 99.3183 333C98.6583 332.98 97.9183 332.96 97.2983 333C97.3783 331.1 97.4183 326.66 97.2983 323.22C97.5583 323.24 98.8783 323.24 99.2183 323.22C99.2183 323.7 99.1783 324.66 99.1983 326.12H99.2983C99.9383 323.9 101.378 323 102.958 323C105.078 323 106.078 324.36 106.338 326.1L106.478 326.12C107.118 323.9 108.558 323 110.138 323C112.618 323 113.658 324.56 113.658 327.1C113.658 328.48 113.578 330.16 113.638 333ZM118.475 328.94C118.475 330.84 119.735 331.64 121.795 331.64C123.895 331.64 124.735 330.34 124.735 328.04C124.735 326.16 124.055 324.66 121.935 324.66C119.835 324.66 118.475 326.32 118.475 328.94ZM116.535 319.5H118.555C118.535 320.22 118.455 322.84 118.455 325.9H118.535C119.215 324.14 120.475 323.02 122.475 323.02C125.315 323.02 126.575 324.96 126.575 328.02C126.575 331.5 124.975 333.16 122.255 333.16C120.455 333.16 119.255 332.5 118.575 331.44L118.475 331.48C118.495 332.08 118.495 332.7 118.495 333C117.755 332.96 117.255 332.96 116.515 333.02C116.715 327.36 116.715 322.84 116.535 319.5ZM132.601 322.96C134.921 322.96 136.121 323.74 137.021 325.28C136.841 325.34 135.661 325.98 135.561 326.04C135.041 325.04 134.101 324.48 132.501 324.48C130.961 324.48 130.361 325.08 130.401 325.86C130.441 326.82 131.321 327.1 133.041 327.3C135.821 327.62 137.161 328.5 137.161 330.3C137.161 332.18 135.701 333.3 133.121 333.3C130.481 333.3 128.721 332.44 127.841 330.44C128.041 330.36 129.201 329.78 129.381 329.66C129.901 331.02 131.241 331.78 133.161 331.78C134.821 331.78 135.381 331.16 135.381 330.38C135.381 329.46 134.641 329.08 132.681 328.8C129.961 328.42 128.661 327.64 128.661 325.8C128.661 324.18 130.001 322.96 132.601 322.96ZM147.197 336.08H138.237V334.8H147.197V336.08ZM156.084 336.08H147.124V334.8H156.084V336.08ZM157.571 323.22C157.871 323.24 159.311 323.24 159.611 323.22C159.591 323.96 159.471 329.78 159.551 333H157.571C157.711 330.38 157.691 326.02 157.571 323.22ZM160.031 319.76C160.031 320.5 159.591 321.04 158.651 321.04C157.651 321.04 157.251 320.5 157.251 319.76C157.251 319.12 157.711 318.5 158.651 318.5C159.551 318.5 160.031 319.12 160.031 319.76ZM165.727 320.84C165.687 321.34 165.667 322.24 165.647 323.28C167.387 323.28 169.167 323.26 169.727 323.22C169.707 323.8 169.747 324.44 169.767 325C169.187 324.96 167.367 324.94 165.607 324.94C165.587 326.7 165.587 328.44 165.587 329.16C165.587 330.74 166.107 331.44 167.447 331.44C168.247 331.44 168.767 331.14 169.347 330.8C169.547 331.3 169.887 331.92 170.147 332.4C169.247 332.96 168.327 333.2 167.287 333.2C164.747 333.2 163.747 331.96 163.747 329.52C163.747 328.36 163.787 326.66 163.807 324.96C162.927 324.96 162.207 324.98 161.927 325C161.947 324.42 161.947 323.8 161.887 323.22C162.187 323.26 162.907 323.26 163.827 323.28C163.827 322.38 163.827 321.54 163.807 320.84C164.567 320.86 165.107 320.86 165.727 320.84ZM176.735 324.5C174.775 324.5 173.615 325.48 173.415 327.5C174.935 327.5 177.475 327.52 179.595 327.46C179.635 325.62 178.575 324.5 176.735 324.5ZM181.355 330.78C180.675 332.18 179.195 333.22 176.835 333.22C173.135 333.22 171.555 331.14 171.555 328.14C171.555 325.12 173.235 323.02 176.735 323.02C179.495 323.02 181.435 324.44 181.435 327.5C181.435 327.8 181.375 328.28 181.315 328.7C179.015 328.66 175.415 328.62 173.415 328.68C173.575 330.68 174.715 331.66 176.855 331.66C178.695 331.66 179.555 330.8 179.955 329.94C180.255 330.16 180.995 330.6 181.355 330.78ZM200.084 333C199.444 332.96 198.784 332.96 198.104 333C198.164 331.44 198.184 328.62 198.184 327.48C198.184 325.44 197.464 324.64 196.004 324.64C194.364 324.64 192.904 326.28 192.904 328.52C192.884 329.88 192.864 331.24 192.884 333C192.264 332.96 191.604 332.96 190.924 333C190.984 331.44 191.024 328.62 191.024 327.48C191.024 325.44 190.304 324.64 188.824 324.64C187.204 324.64 185.744 326.28 185.724 328.52C185.724 329.66 185.684 331.26 185.764 333C185.104 332.98 184.364 332.96 183.744 333C183.824 331.1 183.864 326.66 183.744 323.22C184.004 323.24 185.324 323.24 185.664 323.22C185.664 323.7 185.624 324.66 185.644 326.12H185.744C186.384 323.9 187.824 323 189.404 323C191.524 323 192.524 324.36 192.784 326.1L192.924 326.12C193.564 323.9 195.004 323 196.584 323C199.064 323 200.104 324.56 200.104 327.1C200.104 328.48 200.024 330.16 200.084 333Z" fill="#C0723F"/>
<path d="M156.097 46.16C155.283 46.1467 154.577 46.0267 153.977 45.8C153.39 45.5733 152.937 45.22 152.617 44.74C152.297 44.2733 152.137 43.6867 152.137 42.98V40.04C152.137 39.5867 152.043 39.2267 151.857 38.96C151.67 38.68 151.397 38.48 151.037 38.36C150.677 38.2267 150.23 38.16 149.697 38.16V36.7C150.23 36.6867 150.677 36.62 151.037 36.5C151.397 36.38 151.67 36.1867 151.857 35.92C152.043 35.64 152.137 35.28 152.137 34.84V31.88C152.137 31.3467 152.23 30.8867 152.417 30.5C152.617 30.1 152.89 29.7733 153.237 29.52C153.597 29.2533 154.017 29.0533 154.497 28.92C154.977 28.7867 155.51 28.72 156.097 28.72V30.16C155.643 30.1733 155.25 30.2467 154.917 30.38C154.583 30.5133 154.323 30.7133 154.137 30.98C153.963 31.2467 153.877 31.6 153.877 32.04V34.92C153.877 35.6 153.697 36.1467 153.337 36.56C152.977 36.96 152.43 37.2267 151.697 37.36V37.48C152.443 37.6133 152.99 37.8867 153.337 38.3C153.697 38.7 153.877 39.24 153.877 39.92V42.86C153.877 43.2867 153.963 43.6333 154.137 43.9C154.31 44.18 154.563 44.38 154.897 44.5C155.23 44.6333 155.63 44.7067 156.097 44.72V46.16ZM89.483 70.92C89.483 70.4267 89.603 70.08 89.843 69.88C90.083 69.68 90.3696 69.58 90.703 69.58C91.0496 69.58 91.343 69.68 91.583 69.88C91.8363 70.08 91.963 70.4267 91.963 70.92C91.963 71.4 91.8363 71.7467 91.583 71.96C91.343 72.1733 91.0496 72.28 90.703 72.28C90.3696 72.28 90.083 72.1733 89.843 71.96C89.603 71.7467 89.483 71.4 89.483 70.92ZM89.483 62.36C89.483 61.8533 89.603 61.5 89.843 61.3C90.083 61.1 90.3696 61 90.703 61C91.0496 61 91.343 61.1 91.583 61.3C91.8363 61.5 91.963 61.8533 91.963 62.36C91.963 62.84 91.8363 63.1867 91.583 63.4C91.343 63.6133 91.0496 63.72 90.703 63.72C90.3696 63.72 90.083 63.6133 89.843 63.4C89.603 63.1867 89.483 62.84 89.483 62.36ZM184.906 69.9C184.786 70.3667 184.633 70.8733 184.446 71.42C184.259 71.9667 184.053 72.5067 183.826 73.04C183.613 73.5867 183.399 74.1 183.186 74.58H181.866C181.959 74.2067 182.053 73.8067 182.146 73.38C182.253 72.9533 182.353 72.52 182.446 72.08C182.539 71.6533 182.619 71.2333 182.686 70.82C182.766 70.4067 182.833 70.0267 182.886 69.68H184.766L184.906 69.9ZM182.646 62.36C182.646 61.8533 182.766 61.5 183.006 61.3C183.246 61.1 183.533 61 183.866 61C184.213 61 184.506 61.1 184.746 61.3C184.999 61.5 185.126 61.8533 185.126 62.36C185.126 62.84 184.999 63.1867 184.746 63.4C184.506 63.6133 184.213 63.72 183.866 63.72C183.533 63.72 183.246 63.6133 183.006 63.4C182.766 63.1867 182.646 62.84 182.646 62.36ZM10.4994 102.72C10.966 102.707 11.3594 102.633 11.6794 102.5C12.0127 102.367 12.266 102.16 12.4394 101.88C12.626 101.613 12.7194 101.267 12.7194 100.84V97.94C12.7194 97.26 12.8994 96.72 13.2594 96.32C13.6194 95.9067 14.166 95.6333 14.8994 95.5V95.38C14.166 95.2467 13.6194 94.98 13.2594 94.58C12.8994 94.1667 12.7194 93.62 12.7194 92.94V90.02C12.7194 89.58 12.6327 89.2267 12.4594 88.96C12.286 88.6933 12.0327 88.4933 11.6994 88.36C11.3794 88.2267 10.9794 88.16 10.4994 88.16V86.72C11.1127 86.72 11.6594 86.7867 12.1394 86.92C12.6327 87.0533 13.0527 87.2533 13.3994 87.52C13.746 87.7733 14.006 88.1 14.1794 88.5C14.366 88.9 14.4594 89.3667 14.4594 89.9V92.82C14.4594 93.2733 14.5527 93.64 14.7394 93.92C14.926 94.1867 15.1994 94.3867 15.5594 94.52C15.9327 94.64 16.3794 94.7 16.8994 94.7V96.16C16.3794 96.16 15.9327 96.2267 15.5594 96.36C15.1994 96.48 14.926 96.6733 14.7394 96.94C14.5527 97.2067 14.4594 97.5667 14.4594 98.02V101C14.4594 101.707 14.2927 102.293 13.9594 102.76C13.626 103.227 13.1594 103.573 12.5594 103.8C11.9727 104.04 11.286 104.16 10.4994 104.16V102.72ZM204.554 162.16C203.74 162.147 203.034 162.027 202.434 161.8C201.847 161.573 201.394 161.22 201.074 160.74C200.754 160.273 200.594 159.687 200.594 158.98V156.04C200.594 155.587 200.5 155.227 200.314 154.96C200.127 154.68 199.854 154.48 199.494 154.36C199.134 154.227 198.687 154.16 198.154 154.16V152.7C198.687 152.687 199.134 152.62 199.494 152.5C199.854 152.38 200.127 152.187 200.314 151.92C200.5 151.64 200.594 151.28 200.594 150.84V147.88C200.594 147.347 200.687 146.887 200.874 146.5C201.074 146.1 201.347 145.773 201.694 145.52C202.054 145.253 202.474 145.053 202.954 144.92C203.434 144.787 203.967 144.72 204.554 144.72V146.16C204.1 146.173 203.707 146.247 203.374 146.38C203.04 146.513 202.78 146.713 202.594 146.98C202.42 147.247 202.334 147.6 202.334 148.04V150.92C202.334 151.6 202.154 152.147 201.794 152.56C201.434 152.96 200.887 153.227 200.154 153.36V153.48C200.9 153.613 201.447 153.887 201.794 154.3C202.154 154.7 202.334 155.24 202.334 155.92V158.86C202.334 159.287 202.42 159.633 202.594 159.9C202.767 160.18 203.02 160.38 203.354 160.5C203.687 160.633 204.087 160.707 204.554 160.72V162.16ZM159.151 186.92C159.151 186.427 159.271 186.08 159.511 185.88C159.751 185.68 160.038 185.58 160.371 185.58C160.718 185.58 161.011 185.68 161.251 185.88C161.504 186.08 161.631 186.427 161.631 186.92C161.631 187.4 161.504 187.747 161.251 187.96C161.011 188.173 160.718 188.28 160.371 188.28C160.038 188.28 159.751 188.173 159.511 187.96C159.271 187.747 159.151 187.4 159.151 186.92ZM159.151 178.36C159.151 177.853 159.271 177.5 159.511 177.3C159.751 177.1 160.038 177 160.371 177C160.718 177 161.011 177.1 161.251 177.3C161.504 177.5 161.631 177.853 161.631 178.36C161.631 178.84 161.504 179.187 161.251 179.4C161.011 179.613 160.718 179.72 160.371 179.72C160.038 179.72 159.751 179.613 159.511 179.4C159.271 179.187 159.151 178.84 159.151 178.36ZM219.652 185.9C219.532 186.367 219.379 186.873 219.192 187.42C219.006 187.967 218.799 188.507 218.572 189.04C218.359 189.587 218.146 190.1 217.932 190.58H216.612C216.706 190.207 216.799 189.807 216.892 189.38C216.999 188.953 217.099 188.52 217.192 188.08C217.286 187.653 217.366 187.233 217.432 186.82C217.512 186.407 217.579 186.027 217.632 185.68H219.512L219.652 185.9ZM217.392 178.36C217.392 177.853 217.512 177.5 217.752 177.3C217.992 177.1 218.279 177 218.612 177C218.959 177 219.252 177.1 219.492 177.3C219.746 177.5 219.872 177.853 219.872 178.36C219.872 178.84 219.746 179.187 219.492 179.4C219.252 179.613 218.959 179.72 218.612 179.72C218.279 179.72 217.992 179.613 217.752 179.4C217.512 179.187 217.392 178.84 217.392 178.36ZM89.483 215.92C89.483 215.427 89.603 215.08 89.843 214.88C90.083 214.68 90.3696 214.58 90.703 214.58C91.0496 214.58 91.343 214.68 91.583 214.88C91.8363 215.08 91.963 215.427 91.963 215.92C91.963 216.4 91.8363 216.747 91.583 216.96C91.343 217.173 91.0496 217.28 90.703 217.28C90.3696 217.28 90.083 217.173 89.843 216.96C89.603 216.747 89.483 216.4 89.483 215.92ZM89.483 207.36C89.483 206.853 89.603 206.5 89.843 206.3C90.083 206.1 90.3696 206 90.703 206C91.0496 206 91.343 206.1 91.583 206.3C91.8363 206.5 91.963 206.853 91.963 207.36C91.963 207.84 91.8363 208.187 91.583 208.4C91.343 208.613 91.0496 208.72 90.703 208.72C90.3696 208.72 90.083 208.613 89.843 208.4C89.603 208.187 89.483 207.84 89.483 207.36ZM116.39 214.9C116.27 215.367 116.117 215.873 115.93 216.42C115.744 216.967 115.537 217.507 115.31 218.04C115.097 218.587 114.884 219.1 114.67 219.58H113.35C113.444 219.207 113.537 218.807 113.63 218.38C113.737 217.953 113.837 217.52 113.93 217.08C114.024 216.653 114.104 216.233 114.17 215.82C114.25 215.407 114.317 215.027 114.37 214.68H116.25L116.39 214.9ZM114.13 207.36C114.13 206.853 114.25 206.5 114.49 206.3C114.73 206.1 115.017 206 115.35 206C115.697 206 115.99 206.1 116.23 206.3C116.484 206.5 116.61 206.853 116.61 207.36C116.61 207.84 116.484 208.187 116.23 208.4C115.99 208.613 115.697 208.72 115.35 208.72C115.017 208.72 114.73 208.613 114.49 208.4C114.25 208.187 114.13 207.84 114.13 207.36ZM99.0142 244.92C99.0142 244.427 99.1342 244.08 99.3742 243.88C99.6142 243.68 99.9009 243.58 100.234 243.58C100.581 243.58 100.874 243.68 101.114 243.88C101.368 244.08 101.494 244.427 101.494 244.92C101.494 245.4 101.368 245.747 101.114 245.96C100.874 246.173 100.581 246.28 100.234 246.28C99.9009 246.28 99.6142 246.173 99.3742 245.96C99.1342 245.747 99.0142 245.4 99.0142 244.92ZM99.0142 236.36C99.0142 235.853 99.1342 235.5 99.3742 235.3C99.6142 235.1 99.9009 235 100.234 235C100.581 235 100.874 235.1 101.114 235.3C101.368 235.5 101.494 235.853 101.494 236.36C101.494 236.84 101.368 237.187 101.114 237.4C100.874 237.613 100.581 237.72 100.234 237.72C99.9009 237.72 99.6142 237.613 99.3742 237.4C99.1342 237.187 99.0142 236.84 99.0142 236.36ZM125.922 243.9C125.802 244.367 125.648 244.873 125.462 245.42C125.275 245.967 125.068 246.507 124.842 247.04C124.628 247.587 124.415 248.1 124.202 248.58H122.882C122.975 248.207 123.068 247.807 123.162 247.38C123.268 246.953 123.368 246.52 123.462 246.08C123.555 245.653 123.635 245.233 123.702 244.82C123.782 244.407 123.848 244.027 123.902 243.68H125.782L125.922 243.9ZM123.662 236.36C123.662 235.853 123.782 235.5 124.022 235.3C124.262 235.1 124.548 235 124.882 235C125.228 235 125.522 235.1 125.762 235.3C126.015 235.5 126.142 235.853 126.142 236.36C126.142 236.84 126.015 237.187 125.762 237.4C125.522 237.613 125.228 237.72 124.882 237.72C124.548 237.72 124.262 237.613 124.022 237.4C123.782 237.187 123.662 236.84 123.662 236.36ZM10.4994 276.72C10.966 276.707 11.3594 276.633 11.6794 276.5C12.0127 276.367 12.266 276.16 12.4394 275.88C12.626 275.613 12.7194 275.267 12.7194 274.84V271.94C12.7194 271.26 12.8994 270.72 13.2594 270.32C13.6194 269.907 14.166 269.633 14.8994 269.5V269.38C14.166 269.247 13.6194 268.98 13.2594 268.58C12.8994 268.167 12.7194 267.62 12.7194 266.94V264.02C12.7194 263.58 12.6327 263.227 12.4594 262.96C12.286 262.693 12.0327 262.493 11.6994 262.36C11.3794 262.227 10.9794 262.16 10.4994 262.16V260.72C11.1127 260.72 11.6594 260.787 12.1394 260.92C12.6327 261.053 13.0527 261.253 13.3994 261.52C13.746 261.773 14.006 262.1 14.1794 262.5C14.366 262.9 14.4594 263.367 14.4594 263.9V266.82C14.4594 267.273 14.5527 267.64 14.7394 267.92C14.926 268.187 15.1994 268.387 15.5594 268.52C15.9327 268.64 16.3794 268.7 16.8994 268.7V270.16C16.3794 270.16 15.9327 270.227 15.5594 270.36C15.1994 270.48 14.926 270.673 14.7394 270.94C14.5527 271.207 14.4594 271.567 14.4594 272.02V275C14.4594 275.707 14.2927 276.293 13.9594 276.76C13.626 277.227 13.1594 277.573 12.5594 277.8C11.9727 278.04 11.286 278.16 10.4994 278.16V276.72ZM213.87 336.16C213.057 336.147 212.35 336.027 211.75 335.8C211.163 335.573 210.71 335.22 210.39 334.74C210.07 334.273 209.91 333.687 209.91 332.98V330.04C209.91 329.587 209.817 329.227 209.63 328.96C209.443 328.68 209.17 328.48 208.81 328.36C208.45 328.227 208.003 328.16 207.47 328.16V326.7C208.003 326.687 208.45 326.62 208.81 326.5C209.17 326.38 209.443 326.187 209.63 325.92C209.817 325.64 209.91 325.28 209.91 324.84V321.88C209.91 321.347 210.003 320.887 210.19 320.5C210.39 320.1 210.663 319.773 211.01 319.52C211.37 319.253 211.79 319.053 212.27 318.92C212.75 318.787 213.283 318.72 213.87 318.72V320.16C213.417 320.173 213.023 320.247 212.69 320.38C212.357 320.513 212.097 320.713 211.91 320.98C211.737 321.247 211.65 321.6 211.65 322.04V324.92C211.65 325.6 211.47 326.147 211.11 326.56C210.75 326.96 210.203 327.227 209.47 327.36V327.48C210.217 327.613 210.763 327.887 211.11 328.3C211.47 328.7 211.65 329.24 211.65 329.92V332.86C211.65 333.287 211.737 333.633 211.91 333.9C212.083 334.18 212.337 334.38 212.67 334.5C213.003 334.633 213.403 334.707 213.87 334.72V336.16Z" fill="#29ABCA"/>
</svg>
