<svg width="278" height="41" viewBox="0 0 278 41" fill="none" xmlns="http://www.w3.org/2000/svg">
<path fill-rule="evenodd" clip-rule="evenodd" d="M74.0965 24.1448C62.1529 27.8499 48.3634 31.5372 35.0979 32.4579C23.7596 33.2437 12.8078 32.0231 3.84366 26.83C2.58003 26.0987 0.997632 26.6014 0.314251 27.9546C-0.370172 29.3067 0.10069 30.9999 1.36432 31.7322C11.1431 37.3958 23.0668 38.8772 35.4344 38.0189C48.9384 37.0826 62.9769 33.3707 75.1601 29.6121C76.5737 32.6763 79.501 35.5331 84.6576 37.641C92.578 40.879 103.392 40.8389 114.785 39.0142C131.308 36.3691 149.082 30.0613 160.51 25.5793C160.979 25.3965 161.677 25.1056 162.531 24.7222C162.791 25.3375 163.083 25.9438 163.406 26.5391C166.208 31.7267 171.167 35.9211 176.219 37.4192C208.263 46.9183 245.662 35.5365 276.112 26.2737C277.487 25.8535 278.289 24.3109 277.903 22.8317C277.508 21.3526 276.07 20.4932 274.684 20.9134C245.089 29.9176 208.753 41.2781 177.605 32.0476C173.771 30.9107 170.042 27.6871 167.917 23.7502C167.677 23.311 167.469 22.8618 167.271 22.4059C171.469 20.1799 176.407 17.0768 179.063 13.7551C181.793 10.3498 182.47 6.71495 180.094 3.28182C178.053 0.346934 174.959 0.0972467 171.74 1.61875C168.271 3.24837 164.698 7.0582 163.541 8.8461C161.374 12.1856 160.687 15.8083 161.083 19.3406C160.062 19.8021 159.233 20.1454 158.721 20.346C147.543 24.7288 130.17 30.9152 114.014 33.5023C103.618 35.1676 93.7437 35.3894 86.5161 32.4355C83.4336 31.1749 81.3969 29.7036 80.2916 27.9959C82.4731 27.2981 84.5764 26.6115 86.5859 25.9561C90.5601 24.6597 98.8346 22.514 104.747 18.6897C109.448 15.6489 112.636 11.5124 112.45 6.32704C112.355 3.66302 110.915 1.88512 108.622 0.888618C105.195 -0.599445 99.2701 0.120607 97.0637 0.622201C90.3716 2.14036 81.4397 8.42481 77.0206 15.5062C75.257 18.3318 74.2079 21.2879 74.0965 24.1448ZM79.5937 22.4037C81.4845 21.7951 83.3117 21.1976 85.067 20.6247C88.7767 19.4142 96.5313 17.4914 102.052 13.92C104.975 12.0296 107.361 9.76461 107.246 6.53992C107.236 6.28912 107.004 6.21781 106.799 6.11526C106.481 5.95809 106.117 5.84994 105.73 5.76523C103.108 5.1923 99.5857 5.74625 98.144 6.07396C92.529 7.34801 85.0597 12.6594 81.3521 18.6016C80.5688 19.8567 79.9448 21.1352 79.5937 22.4037ZM166.229 16.7747C168.677 15.4271 171.24 13.7974 173.261 12.024C174.334 11.0821 175.24 10.1135 175.813 9.1081C176.292 8.27657 176.48 7.42492 175.907 6.60231C175.677 6.26902 175.334 6.26238 174.98 6.3248C174.605 6.39168 174.219 6.53432 173.834 6.71823C171.292 7.91537 168.667 10.712 167.823 12.024C166.833 13.5455 166.344 15.1551 166.229 16.7747Z" fill="#FCEEB4"/>
</svg>
