<svg width="237" height="45" viewBox="0 0 237 45" fill="none" xmlns="http://www.w3.org/2000/svg">
<path fill-rule="evenodd" clip-rule="evenodd" d="M87.8722 17.5551C86.4274 17.867 84.9911 18.198 83.5632 18.5496C83.0434 18.6774 82.7255 19.2045 82.8515 19.7262L82.8582 19.7467C75.1259 19.8855 67.3953 20.0985 59.6683 20.3876C48.5061 20.8057 37.273 21.49 26.1486 22.55C15.1551 23.5974 12.1179 23.8669 2.65919 25.6138C2.38869 25.6637 1.86692 25.6609 1.58616 25.74C1.31918 25.8151 1.12802 25.9458 1.00523 26.0738C0.847962 26.236 0.757456 26.4226 0.719048 26.627C0.678408 26.8496 0.690328 27.1216 0.880168 27.4254C1.41573 28.2779 2.28216 28.5116 3.33916 28.3312C4.24862 28.1758 5.34831 27.6264 6.20977 27.5632C20.5506 26.5126 34.8819 25.3486 49.2242 24.3189C71.1807 22.7428 93.0703 21.9929 114.963 21.5393C137.979 21.7284 160.983 22.5517 183.948 23.9602C198.904 24.877 213.828 26.2425 228.765 27.436C228.754 27.5021 228.751 27.5711 228.755 27.6415C228.787 28.1775 229.247 28.5857 229.781 28.5528C230.321 28.5193 235.143 28.3783 236.032 28.1575C236.541 28.0309 236.74 27.7148 236.806 27.5795C236.986 27.2083 236.997 26.8051 236.597 26.4208C236.518 26.347 236.371 26.2252 236.101 26.1475C235.869 26.0794 235.296 25.9934 234.254 25.9145C217.525 24.6343 200.816 23.0454 184.068 22.0172C176.591 21.5596 169.109 21.1624 161.622 20.8309C171.785 20.6917 181.952 20.5345 192.135 20.3074C192.573 20.2989 192.786 20.2271 192.825 20.2102C193.384 19.9671 193.424 19.5231 193.413 19.2714C193.41 19.1816 193.336 18.4404 192.515 18.3368C192.035 18.2759 188.567 18.1593 187.232 18.089C180.821 17.7457 180.97 17.8003 174.411 17.5046C159.986 16.8564 145.582 16.4285 131.141 16.0845C125.382 15.9476 119.625 15.8382 113.865 15.7591C130.465 14.3275 147.406 14.3742 163.551 14.1885C171.88 14.0929 180.211 14.0494 188.54 14.1518C192.27 14.1978 195.999 14.3067 199.729 14.3715C200.888 14.3914 202.043 14.4387 203.201 14.4656C203.338 14.4687 205.134 14.4823 205.429 14.4757C206.2 14.4583 206.378 13.7676 206.385 13.7399C206.418 13.6099 206.547 12.6806 205.588 12.5379C191.741 10.4754 177.223 10.9705 163.235 10.6425C138.754 10.0683 114.206 10.2119 89.7248 10.9927C78.8965 11.338 68.1027 12.0503 57.2892 12.7592C51.8886 13.1132 46.4737 13.4883 41.1242 14.3473C40.5875 14.4336 39.3713 14.5228 38.7813 14.6251C38.4811 14.6774 38.2673 14.7596 38.1694 14.8157C37.7403 15.0591 37.6546 15.4168 37.6476 15.6676C37.6431 15.8556 37.6824 16.5173 38.5659 16.7189C51.1901 19.6029 65.2031 17.731 78.0249 17.6129C81.3071 17.5827 84.5884 17.5636 87.8722 17.5551ZM98.5637 17.5651C94.7601 18.1518 90.994 18.8479 87.281 19.6758C96.5119 19.5439 105.743 19.5176 114.978 19.5937C130.213 19.278 145.448 19.1054 160.701 18.8975C150.839 18.5397 140.974 18.265 131.092 18.0298C120.253 17.7717 109.409 17.612 98.5637 17.5651ZM151.356 12.366C130.836 12.077 110.287 12.2834 89.7852 12.9373C78.9762 13.282 68.2051 13.9933 57.4127 14.7008C53.166 14.9792 48.9077 15.2692 44.6825 15.8039C55.5972 17.1476 67.2295 15.7665 78.0101 15.6673C84.8186 15.6047 91.6304 15.5895 98.44 15.6187C115.757 12.9669 133.845 12.556 151.356 12.366Z" fill="#FCEEB4"/>
</svg>
